<svg width="93" height="93" viewBox="0 0 93 93" fill="none" xmlns="http://www.w3.org/2000/svg">
<g clip-path="url(#clip0_183_2334)">
<path d="M92.3241 14.1467L81.9094 3.73195C81.3186 3.1412 80.5173 2.80933 79.6818 2.80933C78.8464 2.80933 78.0451 3.1412 77.4543 3.73195L67.0396 14.1467C66.6068 14.5794 66.3637 15.1663 66.3637 15.7783C66.3637 16.3903 66.6068 16.9772 67.0395 17.4099C67.4722 17.8427 68.0591 18.0858 68.6711 18.0858C69.2831 18.0858 69.87 17.8428 70.3027 17.41L77.4138 10.3382C77.1184 39.8871 63.0188 49.8632 54.577 53.182C53.9689 53.421 53.3537 53.6393 52.7314 53.837C53.3842 51.4377 53.8705 48.9961 54.1867 46.5298C55.222 38.3448 54.0414 31.566 50.8598 27.4422C46.0236 21.1733 39.5922 18.3455 32.7538 19.4786C29.2612 20.0815 26.0006 21.6304 23.3267 23.9567C20.6248 26.2551 18.5873 29.2347 17.4257 32.5863C15.1915 39.1386 16.887 46.0971 22.0784 51.6778C27.0554 57.0288 34.9517 59.9179 43.2439 59.9178C44.0875 59.9178 44.9339 59.8875 45.7833 59.8269C44.6378 62.5061 43.2759 65.0874 41.7109 67.5452C36.3281 75.9753 24.1172 89.3955 2.81236 84.5677C2.21979 84.441 1.6012 84.553 1.09066 84.8794C0.580121 85.2058 0.218778 85.7202 0.0849527 86.3112C-0.0488724 86.9022 0.0556046 87.5221 0.375738 88.0366C0.695871 88.551 1.20586 88.9186 1.79517 89.0596C4.98928 89.798 8.25587 90.1774 11.5342 90.1905C17.3054 90.2159 23.0015 88.8822 28.1616 86.2974C34.9257 82.9175 40.9533 77.2906 45.5929 70.025C47.7896 66.5704 49.6186 62.8953 51.0499 59.0599C52.8263 58.6655 54.5692 58.1334 56.263 57.4685C63.7317 54.5317 69.9972 49.0989 74.3815 41.7566C79.327 33.4751 81.8949 22.9185 82.0213 10.3691L89.0617 17.4097C89.2759 17.6239 89.5303 17.7939 89.8103 17.9098C90.0902 18.0258 90.3903 18.0855 90.6933 18.0855C90.9963 18.0855 91.2964 18.0258 91.5764 17.9098C91.8563 17.7938 92.1107 17.6239 92.3249 17.4096C92.5392 17.1953 92.7092 16.9409 92.8251 16.661C92.9411 16.381 93.0007 16.0809 93.0007 15.7779C93.0007 15.4749 92.941 15.1749 92.8251 14.8949C92.7091 14.6149 92.5391 14.3606 92.3249 14.1463L92.3241 14.1467ZM49.6173 45.952C49.2198 49.0213 48.5411 52.0477 47.5899 54.9929C39.0651 56.1602 30.3378 53.7954 25.45 48.5409C21.3922 44.1786 20.0904 39.0411 21.7844 34.0728C23.5374 28.9324 28.248 24.8936 33.5062 24.0223C34.2033 23.9061 34.9087 23.8475 35.6154 23.847C39.927 23.847 43.9836 26.0699 47.2124 30.2555C49.6101 33.3628 50.4863 39.0839 49.6173 45.9516V45.952Z" fill="white"/>
</g>
<defs>
<clipPath id="clip0_183_2334">
<rect width="93" height="93" fill="white"/>
</clipPath>
</defs>
</svg>
