<svg width="68" height="80" viewBox="0 0 68 80" fill="none" xmlns="http://www.w3.org/2000/svg">
<path d="M48 70.5933C31.1867 77.5 14.1333 69.26 6.21999 53.7933C-1.83334 38.0466 -0.840008 17.1933 7.59332 1.85329C9.35332 -1.34005 13.8133 1.45995 12.3867 4.65328C6.15999 18.6066 4.95333 35.12 11.0533 49.32C13.6665 55.5006 18.1588 60.7019 23.8933 64.1866C31.3933 68.7933 39.2267 68.0933 47.54 67.38C49.54 67.2066 49.5333 69.9533 48 70.5933Z" fill="#87AB21"/>
<path d="M66.3734 67.88C59.5934 72.4867 52.3734 78.0933 44.0934 79.5333C43.8009 79.5991 43.4944 79.5498 43.2374 79.3957C42.9803 79.2415 42.7924 78.9944 42.7127 78.7055C42.633 78.4165 42.6675 78.108 42.8091 77.8438C42.9507 77.5797 43.1886 77.3802 43.4734 77.2867C50.4334 74.5533 56.3534 70.5133 62.2734 66.1067C58.5134 63.1133 54.1734 60.6533 50.94 57.1333C50.6491 56.8197 50.4789 56.413 50.4597 55.9857C50.4405 55.5584 50.5735 55.1381 50.8352 54.7996C51.0968 54.4612 51.47 54.2266 51.8884 54.1375C52.3068 54.0485 52.7433 54.1108 53.12 54.3133C58.1287 57.1622 62.7152 60.6963 66.7467 64.8133C66.9505 65.0271 67.1044 65.2834 67.1973 65.5638C67.2902 65.8442 67.3199 66.1416 67.2842 66.4348C67.2485 66.728 67.1483 67.0097 66.9909 67.2595C66.8334 67.5094 66.6225 67.7213 66.3734 67.88Z" fill="#87AB21"/>
</svg>
