<svg width="24" height="24" viewBox="0 0 24 24" fill="none" xmlns="http://www.w3.org/2000/svg">
<path d="M23.2799 9.6C23.0923 9.41253 22.838 9.30722 22.5729 9.30722C22.3077 9.30722 22.0534 9.41253 21.8659 9.6L10.9739 20.539C10.5096 21.0034 9.95837 21.3717 9.35172 21.623C8.74507 21.8744 8.09486 22.0038 7.43821 22.0038C6.11205 22.0039 4.84016 21.4772 3.90236 20.5395C2.96455 19.6018 2.43765 18.33 2.43755 17.0039C2.43746 15.6777 2.96418 14.4058 3.90186 13.468L14.4509 2.876C15.0149 2.32089 15.7755 2.01117 16.5669 2.0143C17.3584 2.01743 18.1165 2.33316 18.6762 2.89271C19.2358 3.45226 19.5517 4.2103 19.5551 5.00171C19.5584 5.79312 19.2488 6.55378 18.6939 7.118L8.14486 17.71C7.95461 17.8923 7.70132 17.994 7.43786 17.994C7.17439 17.994 6.92111 17.8923 6.73086 17.71C6.54339 17.5225 6.43807 17.2682 6.43807 17.003C6.43807 16.7378 6.54339 16.4835 6.73086 16.296L16.1229 6.861C16.305 6.6724 16.4058 6.4198 16.4035 6.1576C16.4013 5.8954 16.2961 5.64459 16.1107 5.45918C15.9253 5.27378 15.6745 5.16861 15.4123 5.16633C15.1501 5.16405 14.8975 5.26484 14.7089 5.447L5.31686 14.882C5.03823 15.1606 4.8172 15.4913 4.66641 15.8553C4.51561 16.2193 4.438 16.6095 4.438 17.0035C4.438 17.3975 4.51561 17.7877 4.66641 18.1517C4.8172 18.5157 5.03823 18.8464 5.31686 19.125C5.88848 19.6705 6.64824 19.9748 7.43836 19.9748C8.22848 19.9748 8.98824 19.6705 9.55986 19.125L20.1079 8.532C21.0259 7.59031 21.5359 6.32485 21.5275 5.00977C21.519 3.69469 20.9928 2.43588 20.0628 1.50603C19.1329 0.57617 17.874 0.0501473 16.5589 0.0419074C15.2438 0.0336674 13.9784 0.543873 13.0369 1.462L2.48786 12.054C1.17504 13.3668 0.4375 15.1474 0.4375 17.004C0.4375 18.8606 1.17504 20.6412 2.48786 21.954C3.80068 23.2668 5.58125 24.0044 7.43786 24.0044C9.29447 24.0044 11.075 23.2668 12.3879 21.954L23.2799 11.018C23.3733 10.9251 23.4474 10.8146 23.498 10.6929C23.5486 10.5712 23.5746 10.4408 23.5746 10.309C23.5746 10.1772 23.5486 10.0468 23.498 9.92508C23.4474 9.80341 23.3733 9.69293 23.2799 9.6Z" fill="#16423C"/>
</svg>
