<svg width="24" height="24" viewBox="0 0 24 24" fill="none" xmlns="http://www.w3.org/2000/svg">
<path d="M24 5C24 2.794 22.206 1 20 1C17.794 1 16 2.794 16 5C16.0012 5.88648 16.2963 6.74754 16.8392 7.44837C17.382 8.14919 18.142 8.65022 19 8.873V15C19 16.654 17.654 18 16 18H12.631L14.834 15.797C14.9268 15.7042 15.0005 15.5939 15.0507 15.4726C15.101 15.3513 15.1268 15.2213 15.1268 15.09C15.1268 14.9587 15.101 14.8287 15.0507 14.7074C15.0005 14.5861 14.9268 14.4758 14.834 14.383C14.7412 14.2902 14.6309 14.2165 14.5096 14.1663C14.3883 14.116 14.2583 14.0902 14.127 14.0902C13.9957 14.0902 13.8657 14.116 13.7444 14.1663C13.6231 14.2165 13.5128 14.2902 13.42 14.383L10.879 16.924C10.33 17.472 10 18 10 19C10 20 10.297 20.585 10.879 21.167L13.42 23.708C13.5127 23.8012 13.6228 23.8751 13.7441 23.9256C13.8655 23.9761 13.9956 24.002 14.127 24.002C14.2584 24.002 14.3885 23.9761 14.5099 23.9256C14.6312 23.8751 14.7413 23.8012 14.834 23.708C14.9269 23.6152 15.0007 23.505 15.051 23.3837C15.1013 23.2624 15.1272 23.1323 15.1272 23.001C15.1272 22.8697 15.1013 22.7396 15.051 22.6183C15.0007 22.497 14.9269 22.3868 14.834 22.294L12.541 20.001H16C18.757 20.001 21 17.758 21 15.001V8.874C21.858 8.65122 22.618 8.15019 23.1608 7.44937C23.7037 6.74854 23.9988 5.88648 24 5ZM20 7C18.897 7 18 6.103 18 5C18 3.897 18.897 3 20 3C21.103 3 22 3.897 22 5C22 6.103 21.103 7 20 7ZM13.204 7.122C13.771 6.555 14.083 5.802 14.083 5C14.083 4.198 13.771 3.445 13.204 2.879L10.663 0.338C10.4755 0.150492 10.2212 0.0451508 9.956 0.0451508C9.69082 0.0451508 9.43651 0.150492 9.249 0.338C9.06149 0.525508 8.95615 0.779823 8.95615 1.045C8.95615 1.31018 9.06149 1.56449 9.249 1.752L11.496 4H8C5.243 4 3 6.243 3 9V15.127C2.14197 15.3498 1.38204 15.8508 0.83918 16.5516C0.296324 17.2525 0.00119525 18.1135 0 19C0 21.206 1.794 23 4 23C6.206 23 8 21.206 8 19C7.9988 18.1135 7.70368 17.2525 7.16082 16.5516C6.61797 15.8508 5.85803 15.3498 5 15.127V9C5 7.346 6.346 6 8 6H11.497L9.249 8.248C9.15615 8.34085 9.08251 8.45107 9.03226 8.57237C8.98201 8.69368 8.95615 8.8237 8.95615 8.955C8.95615 9.0863 8.98201 9.21632 9.03226 9.33763C9.08251 9.45893 9.15615 9.56915 9.249 9.662C9.34184 9.75484 9.45207 9.82849 9.57337 9.87874C9.69468 9.92899 9.8247 9.95485 9.956 9.95485C10.0873 9.95485 10.2173 9.92899 10.3386 9.87874C10.4599 9.82849 10.5702 9.75484 10.663 9.662L13.204 7.122ZM6 19C6 20.103 5.103 21 4 21C2.897 21 2 20.103 2 19C2 17.897 2.897 17 4 17C5.103 17 6 17.897 6 19Z" fill="white"/>
</svg>
