<svg width="25" height="24" viewBox="0 0 25 24" fill="none" xmlns="http://www.w3.org/2000/svg">
<g clip-path="url(#clip0_155_9758)">
<path d="M12.3301 0C9.14854 0.00344108 6.09829 1.26883 3.8486 3.51852C1.59891 5.76821 0.333519 8.81846 0.330078 12C0.930078 27.9 23.7301 27.893 24.3301 12C24.3266 8.81846 23.0613 5.76821 20.8116 3.51852C18.5619 1.26883 15.5116 0.00344108 12.3301 0ZM12.3301 22C9.67881 21.9971 7.13696 20.9426 5.26223 19.0679C3.38749 17.1931 2.33299 14.6513 2.33008 12C2.83008 -1.248 21.8301 -1.244 22.3301 12C22.3272 14.6513 21.2727 17.1931 19.3979 19.0679C17.5232 20.9426 14.9813 21.9971 12.3301 22ZM7.33008 9.5C7.33008 9.10218 7.48811 8.72064 7.76942 8.43934C8.05072 8.15804 8.43225 8 8.83008 8C9.2279 8 9.60943 8.15804 9.89074 8.43934C10.172 8.72064 10.3301 9.10218 10.3301 9.5C10.3301 9.89782 10.172 10.2794 9.89074 10.5607C9.60943 10.842 9.2279 11 8.83008 11C8.43225 11 8.05072 10.842 7.76942 10.5607C7.48811 10.2794 7.33008 9.89782 7.33008 9.5ZM14.3301 9.5C14.3301 9.10218 14.4881 8.72064 14.7694 8.43934C15.0507 8.15804 15.4323 8 15.8301 8C16.2279 8 16.6094 8.15804 16.8907 8.43934C17.172 8.72064 17.3301 9.10218 17.3301 9.5C17.3301 9.89782 17.172 10.2794 16.8907 10.5607C16.6094 10.842 16.2279 11 15.8301 11C15.4323 11 15.0507 10.842 14.7694 10.5607C14.4881 10.2794 14.3301 9.89782 14.3301 9.5ZM18.1721 15.542C17.5845 16.5779 16.7362 17.442 15.7114 18.0486C14.6865 18.6552 13.5209 18.9832 12.3301 19C11.1385 18.9834 9.9719 18.6555 8.94608 18.0489C7.92027 17.4423 7.07085 16.5781 6.48208 15.542C6.37576 15.376 6.32085 15.1824 6.32425 14.9853C6.32764 14.7883 6.38919 14.5966 6.50117 14.4344C6.61314 14.2722 6.77054 14.1467 6.9536 14.0737C7.13666 14.0007 7.33722 13.9834 7.53008 14.024C9.06776 14.6033 10.6883 14.9328 12.3301 15C13.9692 14.932 15.5869 14.6025 17.1221 14.024C17.3151 13.9829 17.5159 13.9998 17.6994 14.0726C17.8828 14.1454 18.0405 14.2709 18.1528 14.4332C18.2651 14.5955 18.3268 14.7874 18.3302 14.9847C18.3337 15.182 18.2786 15.3759 18.1721 15.542Z" fill="#16423C"/>
</g>
<defs>
<clipPath id="clip0_155_9758">
<rect width="24" height="24" fill="white" transform="translate(0.330078)"/>
</clipPath>
</defs>
</svg>
