<svg width="24" height="24" viewBox="0 0 24 24" fill="none" xmlns="http://www.w3.org/2000/svg">
<path d="M19 5.99999H17.774C19.187 4.61999 19.403 2.80499 18.319 1.35999C18.0523 1.0016 17.717 0.699807 17.3326 0.472167C16.9483 0.244526 16.5225 0.0955804 16.08 0.0339919C15.6379 -0.0309856 15.1874 -0.00733072 14.7546 0.103578C14.3217 0.214487 13.9153 0.410431 13.559 0.679992C12.881 1.18799 12.381 1.83499 12.012 2.49299C11.643 1.83399 11.143 1.18799 10.465 0.679992C10.1089 0.410411 9.70263 0.214448 9.26997 0.103536C8.83731 -0.00737645 8.3869 -0.0310175 7.945 0.0339919C7.5026 0.0957953 7.07687 0.244832 6.69252 0.472456C6.30817 0.700079 5.97285 1.00176 5.706 1.35999C4.628 2.79699 4.836 4.59999 6.253 5.99999H5C2.243 5.99999 0 8.24299 0 11V19C0 21.757 2.243 24 5 24H19C21.757 24 24 21.757 24 19V11C24 8.24299 21.757 5.99999 19 5.99999ZM14.76 2.27999C15.005 2.09599 15.297 1.99999 15.597 1.99999C16 1.99999 16.495 2.26099 16.72 2.55999C17.361 3.41399 16.763 4.20399 16.377 4.57299C14.816 5.95799 13.16 5.99999 13.019 6.00099H13.006C13.0253 5.90797 13.031 5.81265 13.023 5.71799L13.021 5.69699C13.11 5.09899 13.482 3.23799 14.76 2.27999ZM7.676 4.59599C7.262 4.20099 6.665 3.41399 7.306 2.55899C7.531 2.25999 7.858 2.06599 8.228 2.01299C8.601 1.96499 8.967 2.05599 9.266 2.27999C10.545 3.23899 10.917 5.10199 11.006 5.69599L11.004 5.71699C10.996 5.81165 11.0017 5.90697 11.021 5.99999H11.008C10.867 5.99999 9.211 5.95699 7.676 4.59599ZM5 7.99899H10.824C10.073 9.94999 7.158 9.99799 6.998 9.99899C6.86668 9.99906 6.73666 10.025 6.61535 10.0753C6.49405 10.1256 6.38385 10.1993 6.29104 10.2922C6.1036 10.4799 5.99837 10.7343 5.9985 10.9995C5.99857 11.1308 6.0245 11.2608 6.07481 11.3821C6.12513 11.5034 6.19884 11.6136 6.29175 11.7065C6.38465 11.7993 6.49493 11.8729 6.61628 11.9231C6.73763 11.9733 6.86768 11.9991 6.999 11.999C8.416 11.999 10.696 11.511 11.999 9.94299C13.302 11.512 15.582 11.999 16.999 11.999C17.2642 11.999 17.5186 11.8936 17.7061 11.7061C17.8936 11.5186 17.999 11.2642 17.999 10.999C17.999 10.7338 17.8936 10.4794 17.7061 10.2919C17.5186 10.1043 17.2642 9.99899 16.999 9.99899C16.857 9.99899 13.921 9.97299 13.172 7.99899H18.999C20.653 7.99899 21.999 9.34499 21.999 10.999V16.999H2V10.999C2 9.34499 3.346 7.99899 5 7.99899ZM19 21.999H5C3.346 21.999 2 20.653 2 18.999H22C22 20.653 20.654 21.999 19 21.999Z" fill="#6A9C89"/>
</svg>
