<svg width="20" height="20" viewBox="0 0 20 20" fill="none" xmlns="http://www.w3.org/2000/svg">
<path d="M10 1.25C9.83424 1.25 9.67527 1.31585 9.55806 1.43306C9.44085 1.55027 9.375 1.70924 9.375 1.875V18.125C9.375 18.2908 9.44085 18.4497 9.55806 18.5669C9.67527 18.6842 9.83424 18.75 10 18.75C10.1658 18.75 10.3247 18.6842 10.4419 18.5669C10.5592 18.4497 10.625 18.2908 10.625 18.125V1.875C10.625 1.70924 10.5592 1.55027 10.4419 1.43306C10.3247 1.31585 10.1658 1.25 10 1.25ZM12.5 5.625C12.3342 5.625 12.1753 5.69085 12.0581 5.80806C11.9408 5.92527 11.875 6.08424 11.875 6.25V14.375C11.875 14.5408 11.9408 14.6997 12.0581 14.8169C12.1753 14.9342 12.3342 15 12.5 15C12.6658 15 12.8247 14.9342 12.9419 14.8169C13.0592 14.6997 13.125 14.5408 13.125 14.375V6.25C13.125 6.08424 13.0592 5.92527 12.9419 5.80806C12.8247 5.69085 12.6658 5.625 12.5 5.625ZM15 3.75C14.8342 3.75 14.6753 3.81585 14.5581 3.93306C14.4408 4.05027 14.375 4.20924 14.375 4.375V16.25C14.375 16.4158 14.4408 16.5747 14.5581 16.6919C14.6753 16.8092 14.8342 16.875 15 16.875C15.1658 16.875 15.3247 16.8092 15.4419 16.6919C15.5592 16.5747 15.625 16.4158 15.625 16.25V4.375C15.625 4.20924 15.5592 4.05027 15.4419 3.93306C15.3247 3.81585 15.1658 3.75 15 3.75ZM17.5 7.5C17.3342 7.5 17.1753 7.56585 17.0581 7.68306C16.9408 7.80027 16.875 7.95924 16.875 8.125V12.5C16.875 12.6658 16.9408 12.8247 17.0581 12.9419C17.1753 13.0592 17.3342 13.125 17.5 13.125C17.6658 13.125 17.8247 13.0592 17.9419 12.9419C18.0592 12.8247 18.125 12.6658 18.125 12.5V8.125C18.125 7.95924 18.0592 7.80027 17.9419 7.68306C17.8247 7.56585 17.6658 7.5 17.5 7.5ZM7.5 5.625C7.33424 5.625 7.17527 5.69085 7.05806 5.80806C6.94085 5.92527 6.875 6.08424 6.875 6.25V14.375C6.875 14.5408 6.94085 14.6997 7.05806 14.8169C7.17527 14.9342 7.33424 15 7.5 15C7.66576 15 7.82473 14.9342 7.94194 14.8169C8.05915 14.6997 8.125 14.5408 8.125 14.375V6.25C8.125 6.08424 8.05915 5.92527 7.94194 5.80806C7.82473 5.69085 7.66576 5.625 7.5 5.625ZM5 3.75C4.83424 3.75 4.67527 3.81585 4.55806 3.93306C4.44085 4.05027 4.375 4.20924 4.375 4.375V16.25C4.375 16.4158 4.44085 16.5747 4.55806 16.6919C4.67527 16.8092 4.83424 16.875 5 16.875C5.16576 16.875 5.32473 16.8092 5.44194 16.6919C5.55915 16.5747 5.625 16.4158 5.625 16.25V4.375C5.625 4.20924 5.55915 4.05027 5.44194 3.93306C5.32473 3.81585 5.16576 3.75 5 3.75ZM2.5 7.5C2.33424 7.5 2.17527 7.56585 2.05806 7.68306C1.94085 7.80027 1.875 7.95924 1.875 8.125V12.5C1.875 12.6658 1.94085 12.8247 2.05806 12.9419C2.17527 13.0592 2.33424 13.125 2.5 13.125C2.66576 13.125 2.82473 13.0592 2.94194 12.9419C3.05915 12.8247 3.125 12.6658 3.125 12.5V8.125C3.125 7.95924 3.05915 7.80027 2.94194 7.68306C2.82473 7.56585 2.66576 7.5 2.5 7.5Z" fill="white"/>
</svg>
