<svg width="40" height="32" viewBox="0 0 40 32" fill="none" xmlns="http://www.w3.org/2000/svg">
<g clip-path="url(#clip0_130_150)">
<path d="M19.063 3.05176e-05V6.74974C18.8752 6.8742 18.7047 7.04166 18.5728 7.25287L11.1692 20.5282C10.679 20.8405 10.2039 21.1762 9.75213 21.5368C9.60959 21.6462 9.47309 21.7601 9.33583 21.88C6.61105 24.1996 4.65024 27.3949 3.89307 31.03C1.0793 29.2747 -0.168076 25.4563 1.69394 22.2353L11.8298 4.67157C13.4679 1.83681 16.2085 0.279131 19.063 3.05176e-05Z" fill="#114232"/>
<path d="M32.1142 23.274C31.6595 22.7815 31.1746 22.3138 30.664 21.8793C30.5267 21.7601 30.3895 21.6454 30.2477 21.5361C29.7929 21.1755 29.3208 20.8398 28.8306 20.5275L28.8027 20.477C30.0577 21.2645 31.1519 22.2067 32.1142 23.274Z" fill="#060606"/>
<path d="M37.9101 29.3531C37.346 27.1429 36.2744 25.0881 34.8905 23.2333C32.9531 20.6346 30.4387 18.5791 27.0857 17.3193L27.0676 17.3676L21.4265 7.25212C21.3428 7.12011 21.2463 7.00545 21.1392 6.9089C21.0856 6.85836 21.0328 6.81461 20.974 6.77463C20.9612 6.76708 20.9484 6.75652 20.9355 6.74898V3.05176e-05C23.7878 0.279131 26.5306 1.83681 28.1687 4.67157L38.3046 22.2353C39.696 24.6461 39.3506 27.3896 37.9086 29.3531H37.9101Z" fill="#87A922"/>
<path d="M36.1067 31.03C35.1286 31.6395 33.9634 32 32.6708 32H32.6376C31.1089 31.9495 29.6685 31.2759 28.627 30.158C26.4731 27.8513 23.4075 26.4082 20.0017 26.4082H19.9964C16.5906 26.4082 13.525 27.8513 11.3711 30.158C10.3296 31.2759 8.88992 31.9488 7.36049 32H7.3273C6.03468 32 4.86875 31.6395 3.89136 31.03C4.64853 27.3949 6.60859 24.1988 9.33412 21.88C9.47138 21.7608 9.60863 21.6462 9.75042 21.5368C10.2022 21.1762 10.6773 20.8406 11.1675 20.5283C12.3334 19.7815 13.6004 19.1765 14.9443 18.745C16.5371 18.2321 18.2332 17.9553 19.9957 17.9553H20.0009C21.7634 17.9553 23.4603 18.2321 25.0523 18.745C26.3954 19.1773 27.6609 19.7815 28.8291 20.5283C29.3193 20.8406 29.7914 21.1762 30.2462 21.5368C30.3887 21.6462 30.5252 21.7601 30.6625 21.88C31.173 22.3145 31.658 22.7822 32.1127 23.2748C32.115 23.28 32.118 23.2823 32.1225 23.2846C33.9996 25.3295 35.3684 27.8543 36.0208 30.6513C36.0261 30.6641 36.0283 30.677 36.0306 30.6898C36.0562 30.8044 36.0811 30.9161 36.1045 31.03H36.1067Z" fill="#114232"/>
</g>
<defs>
<clipPath id="clip0_130_150">
<rect width="38.3784" height="32" fill="white" transform="translate(0.810791 3.05176e-05)"/>
</clipPath>
</defs>
</svg>
