<svg width="224" height="30" viewBox="0 0 224 30" fill="none" xmlns="http://www.w3.org/2000/svg">
<g clip-path="url(#clip0_843_115)">
<path d="M16.6684 0V6.12586C16.4965 6.23879 16.3399 6.39141 16.2201 6.5837L9.45925 18.634C9.01098 18.9178 8.57806 19.2231 8.16357 19.5496C8.03461 19.6473 7.90873 19.7511 7.78284 19.861C5.2928 21.967 3.50278 24.8667 2.81196 28.1661C0.24208 26.5729 -0.897018 23.1086 0.803953 20.1845L10.061 4.23957C11.5594 1.66653 14.0617 0.253337 16.6684 0Z" fill="white"/>
<path d="M28.5878 21.1244C28.1733 20.6758 27.7311 20.2515 27.2644 19.8577C27.1386 19.7479 27.0127 19.6471 26.8837 19.5464C26.4692 19.2198 26.0363 18.9146 25.588 18.6307L25.5635 18.585C26.7087 19.2992 27.7096 20.1538 28.5878 21.1244Z" fill="white"/>
<path d="M33.8808 26.6431C33.365 24.6377 32.3886 22.7728 31.1236 21.088C29.3551 18.7286 27.0585 16.8637 23.9974 15.7191L23.982 15.7618L18.83 6.58064C18.7532 6.46161 18.6642 6.35783 18.569 6.26932C18.5199 6.22353 18.4707 6.18385 18.4185 6.14723C18.4063 6.14112 18.394 6.13196 18.3848 6.12281V0C20.9884 0.253337 23.4938 1.66653 24.9891 4.23957L34.2462 20.1815C35.5173 22.3699 35.201 24.8606 33.8839 26.6431H33.8808Z" fill="#87A922"/>
<path d="M32.2325 28.163C31.3391 28.7155 30.2737 29.0451 29.0946 29.0451H29.0639C27.6669 28.9994 26.3528 28.3889 25.401 27.3725C23.4329 25.2787 20.6358 23.9692 17.5256 23.9692H17.5194C14.4092 23.9692 11.609 25.2787 9.64401 27.3725C8.69221 28.3858 7.3781 28.9994 5.98109 29.0451H5.95039C4.76831 29.0451 3.70597 28.7185 2.8125 28.163C3.50333 24.8636 5.29334 21.9639 7.78339 19.8579C7.90927 19.748 8.03515 19.6473 8.16411 19.5465C8.57553 19.22 9.01152 18.9147 9.45979 18.6309C10.5252 17.9533 11.6827 17.4039 12.9078 17.0132C14.3631 16.5462 15.9106 16.2959 17.5194 16.2959H17.5256C19.1344 16.2959 20.685 16.5462 22.1372 17.0132C23.3654 17.4039 24.5198 17.9533 25.5852 18.6309C26.0335 18.9147 26.4634 19.22 26.8809 19.5465C27.0099 19.6442 27.1358 19.748 27.2616 19.8579C27.7283 20.2516 28.1705 20.6759 28.585 21.1246C28.585 21.1307 28.5911 21.1307 28.5942 21.1337C30.3074 22.9895 31.5571 25.2817 32.1558 27.8212C32.1619 27.8334 32.1619 27.8456 32.165 27.8548C32.1895 27.9585 32.211 28.0593 32.2325 28.163Z" fill="white"/>
<path d="M58.9808 8.07948C57.3935 6.50452 55.539 5.73535 53.3068 5.73535C51.0747 5.73535 49.2325 6.50452 47.6451 8.07948C46.0578 9.65749 45.2871 11.4949 45.2871 13.7078V21.836C45.2871 22.2694 45.4314 22.6143 45.7446 22.9256C46.0424 23.2247 46.3863 23.3651 46.8253 23.3651C47.2644 23.3651 47.6052 23.2247 47.9 22.9256C48.2101 22.6173 48.3575 22.2724 48.3575 21.836V18.0359H58.2655V21.836C58.2655 22.2755 58.4067 22.6204 58.7014 22.9195C59.0115 23.2186 59.3585 23.3651 59.8006 23.3651C60.2428 23.3651 60.5743 23.2217 60.8722 22.9317C61.1792 22.6234 61.3204 22.2785 61.3204 21.839V13.7109C61.3204 11.498 60.5559 9.66054 58.9778 8.08253L58.9808 8.07948ZM58.2685 14.9837H48.3605V13.7109C48.3605 12.3679 48.8487 11.1989 49.8128 10.2252C50.783 9.27596 51.959 8.79065 53.3099 8.79065C54.6609 8.79065 55.8368 9.27596 56.807 10.2283C57.7773 11.1928 58.2685 12.3618 58.2685 13.7109V14.9837Z" fill="white"/>
<path d="M66.6875 23.362C66.2515 23.362 65.9076 23.2216 65.6068 22.9224C65.2966 22.6142 65.1523 22.2693 65.1523 21.8358V7.2644C65.1523 6.83404 65.2936 6.49524 65.6006 6.19612C65.9138 5.87868 66.2546 5.73828 66.6875 5.73828C67.1204 5.73828 67.4612 5.87868 67.7621 6.18391C68.0815 6.49524 68.2227 6.83404 68.2227 7.2644V20.325H75.6683C76.1012 20.325 76.442 20.4654 76.7429 20.7706C77.0499 21.0758 77.1912 21.4146 77.1912 21.8358C77.1912 22.257 77.0499 22.6111 76.749 22.9102C76.442 23.2216 76.1012 23.362 75.6683 23.362H66.6875Z" fill="white"/>
<path d="M82.3867 23.362C81.9507 23.362 81.6069 23.2216 81.306 22.9224C80.9959 22.6142 80.8516 22.2693 80.8516 21.8358V7.2644C80.8516 6.83404 80.9928 6.49524 81.2998 6.19612C81.613 5.87868 81.9538 5.73828 82.3867 5.73828C82.8197 5.73828 83.1605 5.87868 83.4614 6.18391C83.7807 6.49524 83.9219 6.83404 83.9219 7.2644V20.325H91.3675C91.8004 20.325 92.1412 20.4654 92.4421 20.7706C92.7491 21.0758 92.8904 21.4146 92.8904 21.8358C92.8904 22.257 92.7492 22.6111 92.4483 22.9102C92.1412 23.2216 91.8004 23.362 91.3675 23.362H82.3867Z" fill="white"/>
<path d="M111.272 8.31438C109.528 6.5807 107.474 5.73828 105.003 5.73828C102.531 5.73828 100.48 6.58375 98.733 8.31438C96.9829 10.0572 96.1416 12.0961 96.1416 14.5471C96.1416 16.998 96.9859 19.0461 98.7299 20.7798C100.483 22.5195 102.537 23.362 105.006 23.362C107.474 23.362 109.531 22.5165 111.275 20.7859C113.019 19.0461 113.867 17.0102 113.867 14.5471C113.867 12.0839 113.016 10.0572 111.275 8.31438H111.272ZM109.102 18.6188C107.975 19.7511 106.593 20.3219 105.003 20.3219C103.412 20.3219 102.027 19.7511 100.904 18.6249C99.7769 17.5047 99.2089 16.1373 99.2089 14.5501C99.2089 12.963 99.7769 11.5986 100.904 10.4784C102.031 9.35825 103.412 8.79053 105.003 8.79053C106.593 8.79053 107.972 9.3613 109.098 10.4754C110.234 11.5955 110.812 12.9691 110.812 14.5501C110.812 16.1312 110.234 17.5108 109.105 18.6218L109.102 18.6188Z" fill="white"/>
<path d="M119.311 23.362C118.875 23.362 118.531 23.2216 118.23 22.9224C117.92 22.6142 117.775 22.2693 117.775 21.8358V7.2644C117.775 6.83404 117.917 6.49524 118.224 6.19612C118.537 5.87868 118.878 5.73828 119.311 5.73828C119.743 5.73828 120.084 5.87868 120.385 6.18391C120.704 6.49524 120.846 6.83404 120.846 7.2644V20.325H128.291C128.724 20.325 129.065 20.4654 129.366 20.7706C129.673 21.0758 129.814 21.4146 129.814 21.8358C129.814 22.257 129.673 22.6111 129.372 22.9102C129.065 23.2216 128.724 23.362 128.291 23.362H119.311Z" fill="white"/>
<path d="M147.167 8.07948C145.58 6.50452 143.726 5.73535 141.493 5.73535C139.261 5.73535 137.419 6.50452 135.832 8.07948C134.244 9.65749 133.474 11.4949 133.474 13.7078V21.836C133.474 22.2694 133.618 22.6143 133.931 22.9256C134.244 23.2369 134.573 23.3651 135.012 23.3651C135.451 23.3651 135.792 23.2247 136.093 22.9256C136.4 22.6173 136.544 22.2724 136.544 21.836V18.0359H146.452V21.836C146.452 22.2755 146.593 22.6204 146.888 22.9195C147.198 23.2186 147.545 23.3651 147.987 23.3651C148.429 23.3651 148.761 23.2217 149.059 22.9317C149.366 22.6234 149.507 22.2785 149.507 21.839V13.7109C149.507 11.498 148.742 9.66054 147.164 8.08253L147.167 8.07948ZM146.455 14.9837H136.547V13.7109C136.547 12.3679 137.035 11.1989 137.999 10.2252C138.97 9.27596 140.145 8.79065 141.496 8.79065C142.847 8.79065 144.023 9.27596 144.994 10.2283C145.964 11.1928 146.455 12.3618 146.455 13.7109V14.9837Z" fill="white"/>
<path d="M181.654 23.362C179.189 23.362 177.135 22.5195 175.381 20.7828C173.637 19.0491 172.79 17.0102 172.79 14.5501C172.79 12.09 173.637 10.0572 175.384 8.31438C177.135 6.5807 179.189 5.73828 181.654 5.73828C182.747 5.73828 183.825 5.93973 184.863 6.33347C185.882 6.73331 186.815 7.31019 187.629 8.04578C187.945 8.33269 188.102 8.66233 188.12 9.08354V9.19648C188.12 9.58411 187.994 9.90155 187.727 10.1946C187.439 10.5089 187.107 10.6646 186.683 10.6799H186.57C186.18 10.6799 185.86 10.5547 185.563 10.2892C185.038 9.80082 184.424 9.41624 183.748 9.15985C183.094 8.91262 182.391 8.79053 181.654 8.79053C180.061 8.79053 178.682 9.35825 177.555 10.4754C176.428 11.5955 175.857 12.966 175.857 14.5501C175.857 16.1342 176.428 17.5047 177.555 18.6249C178.679 19.7512 180.058 20.325 181.654 20.325C182.351 20.325 183.017 20.212 183.634 19.9892C184.27 19.7573 184.853 19.4215 185.375 18.9911C185.667 18.7531 185.965 18.6432 186.315 18.6432C186.367 18.6432 186.419 18.6462 186.478 18.6523C186.914 18.692 187.239 18.8629 187.512 19.1926C187.752 19.4826 187.865 19.7786 187.865 20.1296C187.865 20.1815 187.862 20.2334 187.856 20.2914C187.816 20.7248 187.644 21.0484 187.313 21.32C186.514 21.9823 185.624 22.4951 184.66 22.8492C183.693 23.191 182.677 23.365 181.651 23.365L181.654 23.362Z" fill="white"/>
<path d="M193.521 23.362C193.085 23.362 192.741 23.2216 192.44 22.9224C192.13 22.6142 191.985 22.2693 191.985 21.8358V7.2644C191.985 6.83404 192.127 6.49524 192.434 6.19612C192.747 5.87868 193.088 5.73828 193.521 5.73828H203.183C203.616 5.73828 203.957 5.87868 204.258 6.18391C204.577 6.49524 204.718 6.83404 204.718 7.2644C204.718 7.69477 204.577 8.03357 204.27 8.33269C203.957 8.65013 203.616 8.79358 203.183 8.79358H195.056V13.027H202.529C202.956 13.027 203.3 13.1705 203.61 13.4788C203.911 13.7779 204.052 14.1198 204.052 14.5532C204.052 14.9866 203.911 15.3284 203.61 15.6276C203.3 15.9358 202.956 16.0793 202.529 16.0793H195.056V20.328H203.183C203.619 20.328 203.963 20.4684 204.264 20.7675C204.574 21.0758 204.718 21.4177 204.718 21.8419C204.718 22.2662 204.574 22.6203 204.264 22.9285C203.963 23.2277 203.619 23.3681 203.183 23.3681H193.521V23.362Z" fill="white"/>
<path d="M220.632 23.2367C220.313 23.2367 220.021 23.139 219.742 22.9345L214.844 19.3207C214.494 19.0643 214.304 18.7468 214.24 18.3226C214.227 18.2432 214.221 18.1517 214.221 18.0662C214.221 17.7579 214.319 17.4741 214.525 17.1963C214.838 16.772 215.213 16.5828 215.741 16.5828H216.948C218.047 16.5828 218.992 16.1891 219.76 15.4138C220.531 14.6477 220.924 13.7045 220.924 12.6149C220.924 10.9239 219.99 9.66336 218.299 9.06512C217.663 8.8423 216.981 8.73242 216.269 8.73242C215.557 8.73242 214.863 8.84536 214.236 9.06512C212.545 9.66031 211.611 10.9209 211.611 12.6149V21.7075C211.611 22.1409 211.467 22.4858 211.157 22.7941C210.856 23.0932 210.512 23.2337 210.076 23.2337C209.64 23.2337 209.296 23.0932 208.995 22.7941C208.685 22.4858 208.541 22.1409 208.541 21.7075V12.6149C208.541 11.0002 208.98 9.65725 209.883 8.51266C210.706 7.45964 211.802 6.70268 213.229 6.20211C214.197 5.85415 215.216 5.68018 216.269 5.68018C217.322 5.68018 218.342 5.85415 219.299 6.19906C220.736 6.70268 221.829 7.45658 222.652 8.50961C223.558 9.65725 223.994 11.0002 223.994 12.6149C223.994 14.5653 223.319 16.186 221.928 17.5656C221.621 17.8709 221.286 18.1486 220.939 18.3897L219.797 19.1833L221.565 20.4927C221.906 20.7461 222.094 21.0635 222.158 21.4939C222.17 21.5732 222.176 21.6617 222.176 21.7503C222.176 22.0585 222.078 22.3424 221.872 22.6201C221.618 22.9651 221.301 23.1543 220.884 23.2184C220.804 23.2275 220.715 23.2337 220.629 23.2337L220.632 23.2367Z" fill="white"/>
<path d="M168.725 6.17487C168.424 5.87575 168.083 5.73535 167.644 5.73535C167.205 5.73535 166.864 5.87575 166.563 6.17487C166.253 6.48315 166.105 6.82806 166.105 7.26453V17.4743C166.105 17.572 166.115 17.926 166.105 18.0145V19.6933C166.105 20.3465 165.191 20.5113 164.954 19.9039L164.34 18.3045C164.285 18.1519 164.239 18.0206 164.168 17.8558L163.772 16.8211L161.257 10.3412V10.3473L160.355 8.02454C160.069 7.31642 159.615 6.76701 158.982 6.3458C158.359 5.9368 157.68 5.73535 156.913 5.73535C156.059 5.73535 155.326 5.97953 154.665 6.48315L154.61 6.51673C154.564 6.5503 154.521 6.58082 154.475 6.6205C153.711 7.27979 153.336 8.07032 153.336 9.02262V21.8298C153.336 22.2633 153.48 22.6082 153.793 22.9195C154.094 23.2186 154.435 23.359 154.874 23.359C155.313 23.359 155.654 23.2186 155.955 22.9195C156.265 22.6112 156.412 22.2663 156.412 21.8298V9.4072C156.412 8.75402 157.327 8.5892 157.564 9.1966L158.178 10.796C158.239 10.9577 158.295 11.1073 158.35 11.2447L158.746 12.2794L161.26 18.7593V18.7532L162.163 21.0759C162.449 21.7841 162.903 22.3335 163.536 22.7547C164.159 23.1637 164.837 23.3651 165.605 23.3651C166.459 23.3651 167.192 23.121 167.853 22.6173L167.908 22.5838C167.954 22.5502 167.997 22.5197 168.043 22.48C168.807 21.8207 169.182 21.0302 169.182 20.0779V7.26453C169.182 6.83111 169.038 6.4862 168.725 6.17487Z" fill="white"/>
</g>
<defs>
<clipPath id="clip0_843_115">
<rect width="224" height="29.0452" fill="white"/>
</clipPath>
</defs>
</svg>
