<svg width="224" height="30" viewBox="0 0 224 30" fill="none" xmlns="http://www.w3.org/2000/svg">
<g clip-path="url(#clip0_8_115)">
<path d="M16.6688 0V6.12586C16.4968 6.23879 16.3403 6.39141 16.2205 6.5837L9.45962 18.634C9.01135 18.9178 8.57843 19.2231 8.16393 19.5496C8.03498 19.6473 7.90909 19.7511 7.78321 19.861C5.29316 21.967 3.50315 24.8667 2.81232 28.1661C0.242446 26.5729 -0.896652 23.1086 0.804319 20.1845L10.0614 4.23957C11.5597 1.66653 14.0621 0.253337 16.6688 0Z" fill="#114232"/>
<path d="M28.588 21.1246C28.1735 20.6759 27.7314 20.2517 27.2647 19.8579C27.1388 19.748 27.0129 19.6473 26.884 19.5466C26.4695 19.22 26.0366 18.9148 25.5883 18.6309L25.5637 18.5851C26.709 19.2994 27.7099 20.154 28.588 21.1246Z" fill="#060606"/>
<path d="M33.8813 26.6431C33.3655 24.6377 32.3891 22.7728 31.1241 21.088C29.3556 18.7286 27.059 16.8637 23.9978 15.7191L23.9825 15.7618L18.8305 6.58064C18.7537 6.46161 18.6647 6.35783 18.5695 6.26932C18.5203 6.22353 18.4712 6.18385 18.419 6.14723C18.4067 6.14112 18.3945 6.13196 18.3853 6.12281V0C20.9889 0.253337 23.4943 1.66653 24.9896 4.23957L34.2466 20.1815C35.5178 22.3699 35.2015 24.8606 33.8843 26.6431H33.8813Z" fill="#87A922"/>
<path d="M32.2324 28.1631C31.3389 28.7155 30.2735 29.0452 29.0945 29.0452H29.0638C27.6668 28.9994 26.3527 28.3889 25.4009 27.3725C23.4328 25.2787 20.6357 23.9693 17.5255 23.9693H17.5193C14.4091 23.9693 11.6089 25.2787 9.64389 27.3725C8.69209 28.3859 7.37798 28.9994 5.98097 29.0452H5.95027C4.76819 29.0452 3.70585 28.7186 2.81238 28.1631C3.50321 24.8636 5.29322 21.964 7.78326 19.8579C7.90915 19.748 8.03503 19.6473 8.16399 19.5466C8.57541 19.22 9.0114 18.9148 9.45967 18.6309C10.5251 17.9533 11.6826 17.4039 12.9077 17.0132C14.363 16.5462 15.9105 16.2959 17.5193 16.2959H17.5255C19.1343 16.2959 20.6848 16.5462 22.1371 17.0132C23.3653 17.4039 24.5197 17.9533 25.5851 18.6309C26.0334 18.9148 26.4632 19.22 26.8808 19.5466C27.0098 19.6443 27.1356 19.748 27.2615 19.8579C27.7282 20.2517 28.1703 20.6759 28.5848 21.1246C28.5848 21.1307 28.591 21.1307 28.5941 21.1338C30.3073 22.9895 31.5569 25.2818 32.1557 27.8212C32.1618 27.8334 32.1618 27.8456 32.1649 27.8548C32.1894 27.9586 32.2109 28.0593 32.2324 28.1631Z" fill="#114232"/>
<path d="M58.9813 8.0793C57.394 6.50434 55.5395 5.73518 53.3073 5.73518C51.0752 5.73518 49.233 6.50434 47.6456 8.0793C46.0583 9.65731 45.2876 11.4948 45.2876 13.7076V21.8358C45.2876 22.2692 45.4319 22.6141 45.7451 22.9254C46.0429 23.2246 46.3868 23.365 46.8258 23.365C47.2649 23.365 47.6057 23.2246 47.9005 22.9254C48.2106 22.6172 48.3579 22.2723 48.3579 21.8358V18.0357H58.2659V21.8358C58.2659 22.2753 58.4072 22.6202 58.7019 22.9193C59.012 23.2184 59.359 23.365 59.8011 23.365C60.2432 23.365 60.5748 23.2215 60.8727 22.9315C61.1797 22.6233 61.3209 22.2784 61.3209 21.8388V13.7107C61.3209 11.4978 60.5564 9.66037 58.9783 8.08235L58.9813 8.0793ZM58.269 14.9835H48.361V13.7107C48.361 12.3677 48.8492 11.1987 49.8133 10.225C50.7835 9.27578 51.9595 8.79047 53.3104 8.79047C54.6614 8.79047 55.8373 9.27578 56.8075 10.2281C57.7778 11.1926 58.269 12.3616 58.269 13.7107V14.9835Z" fill="#114232"/>
<path d="M66.6879 23.3619C66.2519 23.3619 65.908 23.2215 65.6071 22.9224C65.297 22.6141 65.1527 22.2692 65.1527 21.8358V7.26435C65.1527 6.83398 65.2939 6.49519 65.601 6.19606C65.9142 5.87863 66.255 5.73823 66.6879 5.73823C67.1208 5.73823 67.4616 5.87863 67.7625 6.18386C68.0818 6.49519 68.2231 6.83398 68.2231 7.26435V20.3249H75.6686C76.1016 20.3249 76.4424 20.4653 76.7433 20.7705C77.0503 21.0758 77.1915 21.4146 77.1915 21.8358C77.1915 22.257 77.0503 22.611 76.7494 22.9102C76.4424 23.2215 76.1016 23.3619 75.6686 23.3619H66.6879Z" fill="#114232"/>
<path d="M82.3865 23.3619C81.9505 23.3619 81.6066 23.2215 81.3057 22.9224C80.9956 22.6141 80.8513 22.2692 80.8513 21.8358V7.26435C80.8513 6.83398 80.9926 6.49519 81.2996 6.19606C81.6128 5.87863 81.9536 5.73823 82.3865 5.73823C82.8194 5.73823 83.1602 5.87863 83.4611 6.18386C83.7804 6.49519 83.9217 6.83398 83.9217 7.26435V20.3249H91.3672C91.8002 20.3249 92.141 20.4653 92.4419 20.7705C92.7489 21.0758 92.8901 21.4146 92.8901 21.8358C92.8901 22.257 92.7489 22.611 92.448 22.9102C92.141 23.2215 91.8002 23.3619 91.3672 23.3619H82.3865Z" fill="#114232"/>
<path d="M111.272 8.31432C109.528 6.58065 107.474 5.73823 105.003 5.73823C102.531 5.73823 100.48 6.5837 98.7331 8.31432C96.983 10.0572 96.1417 12.0961 96.1417 14.547C96.1417 16.998 96.9861 19.046 98.73 20.7797C100.483 22.5195 102.537 23.3619 105.006 23.3619C107.474 23.3619 109.531 22.5164 111.275 20.7858C113.019 19.046 113.867 17.0102 113.867 14.547C113.867 12.0838 113.016 10.0572 111.275 8.31432H111.272ZM109.102 18.6187C107.975 19.7511 106.593 20.3219 105.003 20.3219C103.412 20.3219 102.028 19.7511 100.904 18.6248C99.777 17.5046 99.209 16.1372 99.209 14.5501C99.209 12.9629 99.777 11.5985 100.904 10.4784C102.031 9.35819 103.412 8.79047 105.003 8.79047C106.593 8.79047 107.972 9.36125 109.099 10.4753C110.235 11.5955 110.812 12.969 110.812 14.5501C110.812 16.1311 110.235 17.5107 109.105 18.6218L109.102 18.6187Z" fill="#114232"/>
<path d="M119.31 23.3619C118.874 23.3619 118.531 23.2215 118.23 22.9224C117.92 22.6141 117.775 22.2692 117.775 21.8358V7.26435C117.775 6.83398 117.917 6.49519 118.224 6.19606C118.537 5.87863 118.878 5.73823 119.31 5.73823C119.743 5.73823 120.084 5.87863 120.385 6.18386C120.704 6.49519 120.846 6.83398 120.846 7.26435V20.3249H128.291C128.724 20.3249 129.065 20.4653 129.366 20.7705C129.673 21.0758 129.814 21.4146 129.814 21.8358C129.814 22.257 129.673 22.611 129.372 22.9102C129.065 23.2215 128.724 23.3619 128.291 23.3619H119.31Z" fill="#114232"/>
<path d="M147.168 8.0793C145.58 6.50434 143.726 5.73518 141.494 5.73518C139.262 5.73518 137.419 6.50434 135.832 8.0793C134.245 9.65731 133.474 11.4948 133.474 13.7076V21.8358C133.474 22.2692 133.618 22.6141 133.931 22.9254C134.245 23.2368 134.573 23.365 135.012 23.365C135.451 23.365 135.792 23.2246 136.093 22.9254C136.4 22.6172 136.544 22.2723 136.544 21.8358V18.0357H146.452V21.8358C146.452 22.2753 146.594 22.6202 146.888 22.9193C147.198 23.2184 147.545 23.365 147.988 23.365C148.43 23.365 148.761 23.2215 149.059 22.9315C149.366 22.6233 149.507 22.2784 149.507 21.8388V13.7107C149.507 11.4978 148.743 9.66037 147.165 8.08235L147.168 8.0793ZM146.455 14.9835H136.547V13.7107C136.547 12.3677 137.036 11.1987 138 10.225C138.97 9.27578 140.146 8.79047 141.497 8.79047C142.848 8.79047 144.024 9.27578 144.994 10.2281C145.964 11.1926 146.455 12.3616 146.455 13.7107V14.9835Z" fill="#114232"/>
<path d="M181.654 23.3619C179.188 23.3619 177.134 22.5195 175.381 20.7828C173.637 19.0491 172.79 17.0102 172.79 14.5501C172.79 12.09 173.637 10.0572 175.384 8.31432C177.134 6.58065 179.188 5.73823 181.654 5.73823C182.747 5.73823 183.825 5.93968 184.862 6.33342C185.882 6.73326 186.815 7.31014 187.629 8.04573C187.945 8.33264 188.102 8.66228 188.12 9.08349V9.19642C188.12 9.58406 187.994 9.90149 187.727 10.1945C187.438 10.5089 187.107 10.6646 186.683 10.6798H186.569C186.18 10.6798 185.86 10.5547 185.562 10.2891C185.037 9.80077 184.423 9.41619 183.748 9.1598C183.094 8.91257 182.391 8.79048 181.654 8.79048C180.06 8.79048 178.682 9.35819 177.555 10.4753C176.428 11.5955 175.857 12.9659 175.857 14.5501C175.857 16.1342 176.428 17.5046 177.555 18.6248C178.679 19.7511 180.057 20.3249 181.654 20.3249C182.351 20.3249 183.017 20.212 183.634 19.9892C184.27 19.7572 184.853 19.4215 185.375 18.9911C185.667 18.753 185.965 18.6431 186.315 18.6431C186.367 18.6431 186.419 18.6462 186.477 18.6523C186.913 18.692 187.239 18.8629 187.512 19.1925C187.752 19.4825 187.865 19.7786 187.865 20.1296C187.865 20.1815 187.862 20.2334 187.856 20.2913C187.816 20.7248 187.644 21.0483 187.313 21.32C186.514 21.9823 185.624 22.4951 184.66 22.8491C183.693 23.191 182.676 23.365 181.651 23.365L181.654 23.3619Z" fill="#114232"/>
<path d="M193.521 23.3619C193.085 23.3619 192.741 23.2215 192.44 22.9224C192.13 22.6141 191.985 22.2692 191.985 21.8358V7.26435C191.985 6.83398 192.127 6.49519 192.434 6.19606C192.747 5.87863 193.088 5.73823 193.521 5.73823H203.183C203.616 5.73823 203.957 5.87863 204.258 6.18386C204.577 6.49519 204.718 6.83398 204.718 7.26435C204.718 7.69472 204.577 8.03352 204.27 8.33264C203.957 8.65007 203.616 8.79353 203.183 8.79353H195.056V13.027H202.529C202.956 13.027 203.3 13.1704 203.61 13.4787C203.911 13.7778 204.052 14.1197 204.052 14.5531C204.052 14.9865 203.911 15.3284 203.61 15.6275C203.3 15.9358 202.956 16.0792 202.529 16.0792H195.056V20.328H203.183C203.619 20.328 203.963 20.4684 204.264 20.7675C204.574 21.0758 204.718 21.4176 204.718 21.8419C204.718 22.2661 204.574 22.6202 204.264 22.9285C203.963 23.2276 203.619 23.368 203.183 23.368H193.521V23.3619Z" fill="#114232"/>
<path d="M220.632 23.2368C220.312 23.2368 220.021 23.1391 219.741 22.9346L214.844 19.3207C214.494 19.0643 214.304 18.7469 214.239 18.3226C214.227 18.2433 214.221 18.1517 214.221 18.0662C214.221 17.758 214.319 17.4741 214.525 17.1964C214.838 16.7721 215.213 16.5829 215.741 16.5829H216.947C218.047 16.5829 218.992 16.1891 219.76 15.4138C220.53 14.6477 220.923 13.7046 220.923 12.6149C220.923 10.924 219.99 9.66341 218.298 9.06517C217.663 8.84236 216.981 8.73248 216.269 8.73248C215.557 8.73248 214.863 8.84541 214.236 9.06517C212.544 9.66036 211.611 10.9209 211.611 12.6149V21.7076C211.611 22.141 211.467 22.4859 211.157 22.7942C210.856 23.0933 210.512 23.2337 210.076 23.2337C209.64 23.2337 209.296 23.0933 208.995 22.7942C208.685 22.4859 208.541 22.141 208.541 21.7076V12.6149C208.541 11.0003 208.98 9.65731 209.883 8.51271C210.705 7.45969 211.801 6.70273 213.229 6.20216C214.196 5.85421 215.216 5.68023 216.269 5.68023C217.322 5.68023 218.341 5.85421 219.299 6.19911C220.736 6.70273 221.829 7.45664 222.652 8.50966C223.558 9.65731 223.994 11.0003 223.994 12.6149C223.994 14.5653 223.318 16.1861 221.927 17.5657C221.62 17.8709 221.286 18.1487 220.939 18.3898L219.797 19.1834L221.565 20.4928C221.906 20.7461 222.093 21.0636 222.158 21.4939C222.17 21.5733 222.176 21.6618 222.176 21.7503C222.176 22.0586 222.078 22.3424 221.872 22.6202C221.617 22.9651 221.301 23.1543 220.884 23.2184C220.804 23.2276 220.715 23.2337 220.629 23.2337L220.632 23.2368Z" fill="#114232"/>
<path d="M168.725 6.1747C168.424 5.87558 168.083 5.73518 167.644 5.73518C167.205 5.73518 166.864 5.87558 166.563 6.1747C166.253 6.48298 166.106 6.82788 166.106 7.26435V17.4741C166.106 17.5718 166.115 17.9259 166.106 18.0144V19.6931C166.106 20.3463 165.191 20.5111 164.954 19.9037L164.34 18.3043C164.285 18.1517 164.239 18.0205 164.168 17.8556L163.772 16.8209L161.258 10.341V10.3471L160.355 8.02436C160.069 7.31624 159.615 6.76684 158.982 6.34563C158.359 5.93662 157.681 5.73518 156.913 5.73518C156.059 5.73518 155.326 5.97936 154.666 6.48298L154.61 6.51655C154.564 6.55013 154.521 6.58065 154.475 6.62033C153.711 7.27961 153.336 8.07014 153.336 9.02245V21.8297C153.336 22.2631 153.48 22.608 153.794 22.9193C154.094 23.2184 154.435 23.3589 154.874 23.3589C155.313 23.3589 155.654 23.2184 155.955 22.9193C156.265 22.611 156.413 22.2661 156.413 21.8297V9.40703C156.413 8.75385 157.328 8.58903 157.564 9.19642L158.178 10.7958C158.239 10.9576 158.295 11.1071 158.35 11.2445L158.746 12.2792L161.261 18.7591V18.753L162.163 21.0758C162.449 21.7839 162.903 22.3333 163.536 22.7545C164.159 23.1635 164.838 23.365 165.605 23.365C166.459 23.365 167.193 23.1208 167.853 22.6172L167.908 22.5836C167.954 22.55 167.997 22.5195 168.043 22.4798C168.808 21.8205 169.182 21.03 169.182 20.0777V7.26435C169.182 6.83093 169.038 6.48603 168.725 6.1747Z" fill="#114232"/>
</g>
<defs>
<clipPath id="clip0_8_115">
<rect width="224" height="29.0452" fill="white"/>
</clipPath>
</defs>
</svg>
