<svg width="24" height="24" viewBox="0 0 24 24" fill="none" xmlns="http://www.w3.org/2000/svg">
<path d="M24.0002 11.247C23.8555 8.90702 23.0293 6.66051 21.6233 4.78442C20.2174 2.90834 18.2932 1.48469 16.0879 0.688994C13.8826 -0.106704 11.4927 -0.239667 9.21271 0.306495C6.93277 0.852657 4.86249 2.05407 3.2571 3.76262C1.65171 5.47117 0.581393 7.61216 0.178094 9.92166C-0.225205 12.2312 0.0561486 14.6082 0.987468 16.7597C1.91879 18.9112 3.45936 20.7432 5.41926 22.0298C7.37916 23.3163 9.67271 24.0012 12.0172 24H19.0002C20.3258 23.9987 21.5968 23.4715 22.5342 22.5341C23.4716 21.5967 23.9988 20.3257 24.0002 19V11.247ZM22.0002 19C22.0002 19.7957 21.6841 20.5587 21.1215 21.1213C20.5589 21.6839 19.7958 22 19.0002 22H12.0172C10.6061 21.9994 9.211 21.7013 7.92285 21.1253C6.6347 20.5493 5.48243 19.7082 4.54115 18.657C3.59533 17.6063 2.88508 16.3655 2.45805 15.0178C2.03101 13.6701 1.89705 12.2467 2.06515 10.843C2.33059 8.62894 3.32534 6.56619 4.89259 4.97992C6.45985 3.39366 8.51045 2.37411 10.7212 2.082C11.1524 2.02795 11.5865 2.00056 12.0212 2C14.3516 1.99364 16.61 2.8079 18.4002 4.3C19.4457 5.16894 20.3039 6.24115 20.9227 7.45163C21.5415 8.66211 21.9081 9.98564 22.0002 11.342V19Z" fill="#16423C"/>
<path d="M8 9H12C12.2652 9 12.5196 8.89464 12.7071 8.70711C12.8946 8.51957 13 8.26522 13 8C13 7.73478 12.8946 7.48043 12.7071 7.29289C12.5196 7.10536 12.2652 7 12 7H8C7.73478 7 7.48043 7.10536 7.29289 7.29289C7.10536 7.48043 7 7.73478 7 8C7 8.26522 7.10536 8.51957 7.29289 8.70711C7.48043 8.89464 7.73478 9 8 9ZM16 11H8C7.73478 11 7.48043 11.1054 7.29289 11.2929C7.10536 11.4804 7 11.7348 7 12C7 12.2652 7.10536 12.5196 7.29289 12.7071C7.48043 12.8946 7.73478 13 8 13H16C16.2652 13 16.5196 12.8946 16.7071 12.7071C16.8946 12.5196 17 12.2652 17 12C17 11.7348 16.8946 11.4804 16.7071 11.2929C16.5196 11.1054 16.2652 11 16 11ZM16 15H8C7.73478 15 7.48043 15.1054 7.29289 15.2929C7.10536 15.4804 7 15.7348 7 16C7 16.2652 7.10536 16.5196 7.29289 16.7071C7.48043 16.8946 7.73478 17 8 17H16C16.2652 17 16.5196 16.8946 16.7071 16.7071C16.8946 16.5196 17 16.2652 17 16C17 15.7348 16.8946 15.4804 16.7071 15.2929C16.5196 15.1054 16.2652 15 16 15Z" fill="#16423C"/>
</svg>
