<svg width="24" height="24" viewBox="0 0 24 24" fill="none" xmlns="http://www.w3.org/2000/svg">
<g clip-path="url(#clip0_155_10489)">
<path d="M20.8584 15.331L17.0864 21.486C16.6722 22.166 16.1084 22.7425 15.4377 23.1718C14.7671 23.601 14.0074 23.8716 13.2164 23.963C13.008 23.9877 12.7983 24.0001 12.5884 24C11.5139 23.9985 10.4661 23.665 9.58845 23.045C8.68151 23.7245 7.56118 24.0566 6.43046 23.9812C5.29973 23.9058 4.23341 23.4279 3.4247 22.6341C2.61598 21.8402 2.11836 20.7829 2.02201 19.6538C1.92565 18.5247 2.23693 17.3984 2.89945 16.479L1.58445 15.166C1.02294 14.6045 0.595765 13.9232 0.334901 13.1731C0.0740364 12.4231 -0.013751 11.6237 0.078113 10.835C0.169977 10.0462 0.439111 9.2884 0.86536 8.61838C1.29161 7.94836 1.86393 7.38347 2.53945 6.966L8.30645 3.4C9.86866 2.39878 11.7058 1.91335 13.5587 2.01221C15.4116 2.11107 17.1866 2.78923 18.6334 3.951L20.2924 2.292C20.3847 2.19649 20.495 2.12031 20.617 2.0679C20.739 2.01549 20.8703 1.9879 21.003 1.98675C21.1358 1.98559 21.2675 2.0109 21.3904 2.06118C21.5133 2.11146 21.625 2.18571 21.7188 2.2796C21.8127 2.3735 21.887 2.48515 21.9373 2.60804C21.9876 2.73094 22.0129 2.86262 22.0117 2.9954C22.0105 3.12818 21.983 3.2594 21.9305 3.3814C21.8781 3.50341 21.802 3.61375 21.7064 3.706L20.0494 5.364C21.1608 6.75624 21.8314 8.44842 21.9756 10.224C22.1197 11.9996 21.7307 13.7778 20.8584 15.331ZM8.06445 21.647L4.34545 17.927C4.05483 18.4468 3.94273 19.0475 4.02637 19.6371C4.11 20.2267 4.38474 20.7726 4.80845 21.191C5.23587 21.597 5.77952 21.8592 6.36334 21.941C6.94716 22.0228 7.54194 21.92 8.06445 21.647ZM17.9854 6.047C16.875 4.92584 15.4132 4.22002 13.8446 4.04764C12.2761 3.87525 10.6959 4.24676 9.36845 5.1L3.59145 8.666C3.17249 8.92496 2.81755 9.27536 2.55321 9.69095C2.28886 10.1065 2.12197 10.5765 2.06502 11.0658C2.00808 11.555 2.06256 12.0508 2.22438 12.516C2.3862 12.9812 2.65117 13.4037 2.99945 13.752L10.2894 21.043C10.6383 21.3922 11.0618 21.6578 11.528 21.8198C11.9943 21.9818 12.4912 22.0359 12.9815 21.9782C13.4717 21.9204 13.9424 21.7523 14.3583 21.4864C14.7742 21.2205 15.1243 20.8637 15.3824 20.443L19.1374 14.318C19.8709 13.0007 20.1552 11.4804 19.9473 9.98709C19.7394 8.49381 19.0507 7.1089 17.9854 6.042V6.047ZM19.2644 24C19.0533 24.0004 18.8474 23.9339 18.6763 23.8101C18.5052 23.6862 18.3777 23.5114 18.3121 23.3107C18.2465 23.11 18.2461 22.8936 18.311 22.6926C18.3759 22.4917 18.5028 22.3164 18.6734 22.192C20.4245 20.8755 21.6095 18.9426 21.9884 16.785C22.015 16.6551 22.0672 16.5318 22.1418 16.4222C22.2165 16.3127 22.3122 16.2191 22.4234 16.1469C22.5345 16.0746 22.659 16.0252 22.7894 16.0015C22.9199 15.9778 23.0537 15.9803 23.1832 16.0088C23.3127 16.0373 23.4352 16.0913 23.5436 16.1676C23.652 16.2439 23.7442 16.341 23.8148 16.4532C23.8853 16.5654 23.9329 16.6906 23.9546 16.8214C23.9764 16.9522 23.9719 17.086 23.9414 17.215C23.4515 19.8467 21.9928 22.1991 19.8534 23.808C19.6824 23.9327 19.4762 24 19.2644 24ZM0.999449 5.739C0.814752 5.73817 0.633891 5.68622 0.47692 5.58888C0.319949 5.49155 0.193002 5.35264 0.110153 5.18757C0.027305 5.02249 -0.00820713 4.8377 0.00755457 4.65367C0.0233163 4.46965 0.0897359 4.29358 0.199449 4.145C1.83043 1.96559 4.23127 0.49032 6.91245 0.019998C7.17236 -0.0330453 7.4427 0.0193336 7.66399 0.165612C7.88528 0.31189 8.03941 0.540086 8.09245 0.799998C8.14549 1.05991 8.09311 1.33025 7.94683 1.55154C7.80056 1.77283 7.57236 1.92695 7.31245 1.98C5.11043 2.34362 3.13468 3.54562 1.79945 5.334C1.70683 5.45911 1.58627 5.56088 1.44739 5.63119C1.3085 5.7015 1.15512 5.73842 0.999449 5.739Z" fill="#16423C"/>
</g>
<defs>
<clipPath id="clip0_155_10489">
<rect width="24" height="24" fill="white"/>
</clipPath>
</defs>
</svg>
