<svg width="20" height="24" viewBox="0 0 20 24" fill="none" xmlns="http://www.w3.org/2000/svg">
<path d="M10 10C8.07 10 6.5 11.57 6.5 13.5C6.5 15.43 8.07 17 10 17C11.93 17 13.5 15.43 13.5 13.5C13.5 11.57 11.93 10 10 10ZM10 15C9.173 15 8.5 14.327 8.5 13.5C8.5 12.673 9.173 12 10 12C10.827 12 11.5 12.673 11.5 13.5C11.5 14.327 10.827 15 10 15ZM17.949 5.53602L14.465 2.05002C13.8163 1.39816 13.0449 0.881354 12.1952 0.529482C11.3456 0.177611 10.4346 -0.00234388 9.515 2.30487e-05H5C2.243 2.30487e-05 0 2.24302 0 5.00002V19C0 21.757 2.243 24 5 24H15C17.757 24 20 21.757 20 19V10.485C20.0025 9.5653 19.8224 8.65423 19.4704 7.80455C19.1183 6.95488 18.6012 6.18448 17.949 5.53602ZM16.535 6.95102C16.853 7.26802 17.122 7.62102 17.34 8.00102H12.999C12.447 8.00102 11.999 7.55202 11.999 7.00102V2.65902C12.379 2.87702 12.732 3.14602 13.05 3.46402L16.534 6.95002L16.535 6.95102ZM7.172 22.001C7.585 20.837 8.696 20.001 10 20.001C11.304 20.001 12.415 20.837 12.828 22.001H7.172ZM18 19.001C18 20.655 16.654 22.001 15 22.001H14.899C14.434 19.722 12.414 18.001 10 18.001C7.586 18.001 5.565 19.722 5.101 22.001H5C3.346 22.001 2 20.655 2 19.001V5.00002C2 3.34602 3.346 2.00002 5 2.00002H9.515C9.678 2.00002 9.84 2.00802 10 2.02302V7.00002C10 8.65402 11.346 10 13 10H17.977C17.992 10.16 18 10.322 18 10.485V19.001Z" fill="#6A9C89"/>
</svg>
