<svg width="24" height="28" viewBox="0 0 24 28" fill="none" xmlns="http://www.w3.org/2000/svg">
<path d="M9.2939 22.564L10.0969 20.334C10.5375 19.1115 11.2424 18.0012 12.1613 17.0824C13.0801 16.1635 14.1904 15.4586 15.4129 15.018L17.6429 14.215C17.6869 14.1989 17.725 14.1696 17.7518 14.1311C17.7787 14.0927 17.7931 14.0469 17.7931 14C17.7931 13.9531 17.7787 13.9073 17.7518 13.8689C17.725 13.8304 17.6869 13.8012 17.6429 13.785L15.4129 12.982C14.1904 12.5414 13.0801 11.8365 12.1613 10.9177C11.2424 9.99879 10.5375 8.88852 10.0969 7.66601L9.2939 5.43601C9.27776 5.39198 9.24848 5.35396 9.21003 5.32711C9.17158 5.30025 9.12581 5.28585 9.07891 5.28585C9.032 5.28585 8.98623 5.30025 8.94778 5.32711C8.90933 5.35396 8.88005 5.39198 8.8639 5.43601L8.0609 7.66601C7.62029 8.88852 6.91543 9.99879 5.99655 10.9177C5.07768 11.8365 3.96741 12.5414 2.7449 12.982L0.514904 13.785C0.470871 13.8012 0.432857 13.8304 0.406002 13.8689C0.379147 13.9073 0.364746 13.9531 0.364746 14C0.364746 14.0469 0.379147 14.0927 0.406002 14.1311C0.432857 14.1696 0.470871 14.1989 0.514904 14.215L2.7449 15.018C3.96741 15.4586 5.07768 16.1635 5.99655 17.0824C6.91543 18.0012 7.62029 19.1115 8.0609 20.334L8.8639 22.564C8.87961 22.6085 8.90871 22.647 8.94722 22.6743C8.98573 22.7015 9.03174 22.7161 9.07891 22.7161C9.12607 22.7161 9.17208 22.7015 9.21059 22.6743C9.2491 22.647 9.2782 22.6085 9.2939 22.564ZM19.3319 27.923L19.7389 26.794C19.9622 26.175 20.3192 25.6129 20.7845 25.1476C21.2498 24.6823 21.8119 24.3253 22.4309 24.102L23.5599 23.695C23.5823 23.6869 23.6016 23.672 23.6152 23.6525C23.6289 23.633 23.6362 23.6098 23.6362 23.586C23.6362 23.5622 23.6289 23.539 23.6152 23.5195C23.6016 23.5 23.5823 23.4852 23.5599 23.477L22.4309 23.07C21.8119 22.8467 21.2498 22.4897 20.7845 22.0244C20.3192 21.5591 19.9622 20.997 19.7389 20.378L19.3319 19.249C19.3238 19.2266 19.3089 19.2073 19.2894 19.1937C19.2699 19.18 19.2467 19.1727 19.2229 19.1727C19.1991 19.1727 19.1759 19.18 19.1564 19.1937C19.1369 19.2073 19.122 19.2266 19.1139 19.249L18.7069 20.378C18.4836 20.997 18.1266 21.5591 17.6613 22.0244C17.196 22.4897 16.6339 22.8467 16.0149 23.07L14.8859 23.477C14.8635 23.4852 14.8442 23.5 14.8306 23.5195C14.8169 23.539 14.8096 23.5622 14.8096 23.586C14.8096 23.6098 14.8169 23.633 14.8306 23.6525C14.8442 23.672 14.8635 23.6869 14.8859 23.695L16.0149 24.102C16.6339 24.3253 17.196 24.6823 17.6613 25.1476C18.1266 25.6129 18.4836 26.175 18.7069 26.794L19.1139 27.923C19.122 27.9454 19.1369 27.9647 19.1564 27.9784C19.1759 27.992 19.1991 27.9993 19.2229 27.9993C19.2467 27.9993 19.2699 27.992 19.2894 27.9784C19.3089 27.9647 19.3238 27.9454 19.3319 27.923ZM19.3319 8.75001L19.7389 7.62101C19.9622 7.00204 20.3192 6.43991 20.7845 5.97462C21.2498 5.50932 21.8119 5.15232 22.4309 4.92901L23.5599 4.52201C23.5823 4.51387 23.6016 4.49904 23.6152 4.47954C23.6289 4.46004 23.6362 4.43682 23.6362 4.41301C23.6362 4.38921 23.6289 4.36598 23.6152 4.34648C23.6016 4.32698 23.5823 4.31216 23.5599 4.30401L22.4309 3.89701C21.8119 3.67371 21.2498 3.3167 20.7845 2.85141C20.3192 2.38612 19.9622 1.82398 19.7389 1.20501L19.3319 0.0760117C19.3238 0.0536461 19.3089 0.0343246 19.2894 0.0206718C19.2699 0.00702095 19.2467 -0.000301361 19.2229 -0.000301361C19.1991 -0.000301361 19.1759 0.00702095 19.1564 0.0206718C19.1369 0.0343246 19.122 0.0536461 19.1139 0.0760117L18.7069 1.20501C18.4836 1.82398 18.1266 2.38612 17.6613 2.85141C17.196 3.3167 16.6339 3.67371 16.0149 3.89701L14.8859 4.30401C14.8635 4.31216 14.8442 4.32698 14.8306 4.34648C14.8169 4.36598 14.8096 4.38921 14.8096 4.41301C14.8096 4.43682 14.8169 4.46004 14.8306 4.47954C14.8442 4.49904 14.8635 4.51387 14.8859 4.52201L16.0149 4.92901C16.6339 5.15232 17.196 5.50932 17.6613 5.97462C18.1266 6.43991 18.4836 7.00204 18.7069 7.62101L19.1139 8.75001C19.1509 8.85201 19.2959 8.85201 19.3319 8.75001Z" fill="white"/>
</svg>
