<svg width="30" height="30" viewBox="0 0 30 30" fill="none" xmlns="http://www.w3.org/2000/svg">
<path d="M12.4631 23.0288L13.2159 20.9381C13.629 19.792 14.2898 18.7512 15.1513 17.8897C16.0127 17.0283 17.0536 16.3674 18.1997 15.9544L20.2903 15.2016C20.3316 15.1864 20.3672 15.159 20.3924 15.1229C20.4176 15.0869 20.4311 15.044 20.4311 15C20.4311 14.956 20.4176 14.9131 20.3924 14.8771C20.3672 14.841 20.3316 14.8136 20.2903 14.7984L18.1997 14.0456C17.0536 13.6326 16.0127 12.9717 15.1513 12.1103C14.2898 11.2488 13.629 10.208 13.2159 9.06188L12.4631 6.97125C12.448 6.92997 12.4205 6.89433 12.3845 6.86915C12.3484 6.84398 12.3055 6.83048 12.2616 6.83048C12.2176 6.83048 12.1747 6.84398 12.1386 6.86915C12.1026 6.89433 12.0751 6.92997 12.06 6.97125L11.3072 9.06188C10.8941 10.208 10.2333 11.2488 9.37186 12.1103C8.51041 12.9717 7.46954 13.6326 6.32344 14.0456L4.23281 14.7984C4.19153 14.8136 4.15589 14.841 4.13072 14.8771C4.10554 14.9131 4.09204 14.956 4.09204 15C4.09204 15.044 4.10554 15.0869 4.13072 15.1229C4.15589 15.159 4.19153 15.1864 4.23281 15.2016L6.32344 15.9544C7.46954 16.3674 8.51041 17.0283 9.37186 17.8897C10.2333 18.7512 10.8941 19.792 11.3072 20.9381L12.06 23.0288C12.0747 23.0705 12.102 23.1066 12.1381 23.1321C12.1742 23.1576 12.2173 23.1714 12.2616 23.1714C12.3058 23.1714 12.3489 23.1576 12.385 23.1321C12.4211 23.1066 12.4484 23.0705 12.4631 23.0288ZM21.8738 28.0528L22.2553 26.9944C22.4647 26.4141 22.7994 25.8871 23.2356 25.4509C23.6718 25.0147 24.1988 24.68 24.7791 24.4706L25.8375 24.0891C25.8585 24.0814 25.8766 24.0675 25.8894 24.0492C25.9022 24.031 25.909 24.0092 25.909 23.9869C25.909 23.9646 25.9022 23.9428 25.8894 23.9245C25.8766 23.9062 25.8585 23.8923 25.8375 23.8847L24.7791 23.5031C24.1988 23.2938 23.6718 22.9591 23.2356 22.5229C22.7994 22.0867 22.4647 21.5597 22.2553 20.9794L21.8738 19.9209C21.8661 19.9 21.8522 19.8819 21.8339 19.8691C21.8157 19.8563 21.7939 19.8494 21.7716 19.8494C21.7492 19.8494 21.7275 19.8563 21.7092 19.8691C21.6909 19.8819 21.677 19.9 21.6694 19.9209L21.2878 20.9794C21.0785 21.5597 20.7438 22.0867 20.3076 22.5229C19.8714 22.9591 19.3443 23.2938 18.7641 23.5031L17.7056 23.8847C17.6847 23.8923 17.6665 23.9062 17.6537 23.9245C17.6409 23.9428 17.6341 23.9646 17.6341 23.9869C17.6341 24.0092 17.6409 24.031 17.6537 24.0492C17.6665 24.0675 17.6847 24.0814 17.7056 24.0891L18.7641 24.4706C19.3443 24.68 19.8714 25.0147 20.3076 25.4509C20.7438 25.8871 21.0785 26.4141 21.2878 26.9944L21.6694 28.0528C21.677 28.0738 21.6909 28.0919 21.7092 28.1047C21.7275 28.1175 21.7492 28.1244 21.7716 28.1244C21.7939 28.1244 21.8157 28.1175 21.8339 28.1047C21.8522 28.0919 21.8661 28.0738 21.8738 28.0528ZM21.8738 10.0781L22.2553 9.01969C22.4647 8.4394 22.7994 7.9124 23.2356 7.47619C23.6718 7.03998 24.1988 6.70529 24.7791 6.49594L25.8375 6.11438C25.8585 6.10674 25.8766 6.09284 25.8894 6.07456C25.9022 6.05628 25.909 6.0345 25.909 6.01219C25.909 5.98987 25.9022 5.9681 25.8894 5.94982C25.8766 5.93154 25.8585 5.91764 25.8375 5.91L24.7791 5.52844C24.1988 5.31909 23.6718 4.9844 23.2356 4.54819C22.7994 4.11198 22.4647 3.58497 22.2553 3.00469L21.8738 1.94625C21.8661 1.92528 21.8522 1.90717 21.8339 1.89437C21.8157 1.88157 21.7939 1.87471 21.7716 1.87471C21.7492 1.87471 21.7275 1.88157 21.7092 1.89437C21.6909 1.90717 21.677 1.92528 21.6694 1.94625L21.2878 3.00469C21.0785 3.58497 20.7438 4.11198 20.3076 4.54819C19.8714 4.9844 19.3443 5.31909 18.7641 5.52844L17.7056 5.91C17.6847 5.91764 17.6665 5.93154 17.6537 5.94982C17.6409 5.9681 17.6341 5.98987 17.6341 6.01219C17.6341 6.0345 17.6409 6.05628 17.6537 6.07456C17.6665 6.09284 17.6847 6.10674 17.7056 6.11438L18.7641 6.49594C19.3443 6.70529 19.8714 7.03998 20.3076 7.47619C20.7438 7.9124 21.0785 8.4394 21.2878 9.01969L21.6694 10.0781C21.7041 10.1738 21.84 10.1738 21.8738 10.0781Z" fill="#87AB21"/>
</svg>
