<svg width="24" height="29" viewBox="0 0 24 29" fill="none" xmlns="http://www.w3.org/2000/svg">
<path d="M9.2939 23.1241L10.0969 20.8941C10.5375 19.6716 11.2424 18.5613 12.1613 17.6424C13.0801 16.7235 14.1904 16.0187 15.4129 15.5781L17.6429 14.7751C17.6869 14.7589 17.725 14.7296 17.7518 14.6912C17.7787 14.6527 17.7931 14.607 17.7931 14.5601C17.7931 14.5132 17.7787 14.4674 17.7518 14.4289C17.725 14.3905 17.6869 14.3612 17.6429 14.3451L15.4129 13.5421C14.1904 13.1015 13.0801 12.3966 12.1613 11.4777C11.2424 10.5588 10.5375 9.44858 10.0969 8.22607L9.2939 5.99607C9.27776 5.95204 9.24848 5.91402 9.21003 5.88717C9.17158 5.86031 9.12581 5.84591 9.07891 5.84591C9.032 5.84591 8.98623 5.86031 8.94778 5.88717C8.90933 5.91402 8.88005 5.95204 8.8639 5.99607L8.0609 8.22607C7.62029 9.44858 6.91543 10.5588 5.99655 11.4777C5.07768 12.3966 3.96741 13.1015 2.7449 13.5421L0.514904 14.3451C0.470871 14.3612 0.432857 14.3905 0.406002 14.4289C0.379147 14.4674 0.364746 14.5132 0.364746 14.5601C0.364746 14.607 0.379147 14.6527 0.406002 14.6912C0.432857 14.7296 0.470871 14.7589 0.514904 14.7751L2.7449 15.5781C3.96741 16.0187 5.07768 16.7235 5.99655 17.6424C6.91543 18.5613 7.62029 19.6716 8.0609 20.8941L8.8639 23.1241C8.87961 23.1686 8.90871 23.2071 8.94722 23.2343C8.98573 23.2616 9.03174 23.2762 9.07891 23.2762C9.12607 23.2762 9.17208 23.2616 9.21059 23.2343C9.2491 23.2071 9.2782 23.1686 9.2939 23.1241ZM19.3319 28.4831L19.7389 27.3541C19.9622 26.7351 20.3192 26.173 20.7845 25.7077C21.2498 25.2424 21.8119 24.8854 22.4309 24.6621L23.5599 24.2551C23.5823 24.2469 23.6016 24.2321 23.6152 24.2126C23.6289 24.1931 23.6362 24.1699 23.6362 24.1461C23.6362 24.1223 23.6289 24.099 23.6152 24.0795C23.6016 24.06 23.5823 24.0452 23.5599 24.0371L22.4309 23.6301C21.8119 23.4068 21.2498 23.0498 20.7845 22.5845C20.3192 22.1192 19.9622 21.557 19.7389 20.9381L19.3319 19.8091C19.3238 19.7867 19.3089 19.7674 19.2894 19.7537C19.2699 19.7401 19.2467 19.7328 19.2229 19.7328C19.1991 19.7328 19.1759 19.7401 19.1564 19.7537C19.1369 19.7674 19.122 19.7867 19.1139 19.8091L18.7069 20.9381C18.4836 21.557 18.1266 22.1192 17.6613 22.5845C17.196 23.0498 16.6339 23.4068 16.0149 23.6301L14.8859 24.0371C14.8635 24.0452 14.8442 24.06 14.8306 24.0795C14.8169 24.099 14.8096 24.1223 14.8096 24.1461C14.8096 24.1699 14.8169 24.1931 14.8306 24.2126C14.8442 24.2321 14.8635 24.2469 14.8859 24.2551L16.0149 24.6621C16.6339 24.8854 17.196 25.2424 17.6613 25.7077C18.1266 26.173 18.4836 26.7351 18.7069 27.3541L19.1139 28.4831C19.122 28.5054 19.1369 28.5248 19.1564 28.5384C19.1759 28.5521 19.1991 28.5594 19.2229 28.5594C19.2467 28.5594 19.2699 28.5521 19.2894 28.5384C19.3089 28.5248 19.3238 28.5054 19.3319 28.4831ZM19.3319 9.31007L19.7389 8.18107C19.9622 7.5621 20.3192 6.99996 20.7845 6.53467C21.2498 6.06938 21.8119 5.71238 22.4309 5.48907L23.5599 5.08207C23.5823 5.07393 23.6016 5.0591 23.6152 5.0396C23.6289 5.0201 23.6362 4.99687 23.6362 4.97307C23.6362 4.94927 23.6289 4.92604 23.6152 4.90654C23.6016 4.88704 23.5823 4.87222 23.5599 4.86407L22.4309 4.45707C21.8119 4.23376 21.2498 3.87676 20.7845 3.41147C20.3192 2.94618 19.9622 2.38404 19.7389 1.76507L19.3319 0.63607C19.3238 0.613705 19.3089 0.594383 19.2894 0.58073C19.2699 0.56708 19.2467 0.559757 19.2229 0.559757C19.1991 0.559757 19.1759 0.56708 19.1564 0.58073C19.1369 0.594383 19.122 0.613705 19.1139 0.63607L18.7069 1.76507C18.4836 2.38404 18.1266 2.94618 17.6613 3.41147C17.196 3.87676 16.6339 4.23376 16.0149 4.45707L14.8859 4.86407C14.8635 4.87222 14.8442 4.88704 14.8306 4.90654C14.8169 4.92604 14.8096 4.94927 14.8096 4.97307C14.8096 4.99687 14.8169 5.0201 14.8306 5.0396C14.8442 5.0591 14.8635 5.07393 14.8859 5.08207L16.0149 5.48907C16.6339 5.71238 17.196 6.06938 17.6613 6.53467C18.1266 6.99996 18.4836 7.5621 18.7069 8.18107L19.1139 9.31007C19.1509 9.41207 19.2959 9.41207 19.3319 9.31007Z" fill="#16423C"/>
</svg>
