<svg width="24" height="28" viewBox="0 0 24 28" fill="none" xmlns="http://www.w3.org/2000/svg">
<path d="M9.29439 22.564L10.0974 20.334C10.538 19.1115 11.2429 18.0012 12.1617 17.0824C13.0806 16.1635 14.1909 15.4586 15.4134 15.018L17.6434 14.215C17.6874 14.1989 17.7254 14.1696 17.7523 14.1311C17.7792 14.0927 17.7936 14.0469 17.7936 14C17.7936 13.9531 17.7792 13.9073 17.7523 13.8689C17.7254 13.8304 17.6874 13.8011 17.6434 13.785L15.4134 12.982C14.1909 12.5414 13.0806 11.8365 12.1617 10.9176C11.2429 9.99877 10.538 8.88851 10.0974 7.666L9.29439 5.436C9.27824 5.39196 9.24897 5.35395 9.21052 5.3271C9.17206 5.30024 9.12629 5.28584 9.07939 5.28584C9.03249 5.28584 8.98672 5.30024 8.94827 5.3271C8.90982 5.35395 8.88054 5.39196 8.86439 5.436L8.06139 7.666C7.62078 8.88851 6.91592 9.99877 5.99704 10.9176C5.07816 11.8365 3.9679 12.5414 2.74539 12.982L0.515393 13.785C0.471359 13.8011 0.433345 13.8304 0.40649 13.8689C0.379635 13.9073 0.365234 13.9531 0.365234 14C0.365234 14.0469 0.379635 14.0927 0.40649 14.1311C0.433345 14.1696 0.471359 14.1989 0.515393 14.215L2.74539 15.018C3.9679 15.4586 5.07816 16.1635 5.99704 17.0824C6.91592 18.0012 7.62078 19.1115 8.06139 20.334L8.86439 22.564C8.88009 22.6085 8.9092 22.647 8.94771 22.6742C8.98621 22.7015 9.03222 22.7161 9.07939 22.7161C9.12656 22.7161 9.17257 22.7015 9.21108 22.6742C9.24958 22.647 9.27869 22.6085 9.29439 22.564ZM19.3324 27.923L19.7394 26.794C19.9627 26.175 20.3197 25.6129 20.785 25.1476C21.2503 24.6823 21.8124 24.3253 22.4314 24.102L23.5604 23.695C23.5828 23.6869 23.6021 23.672 23.6157 23.6525C23.6294 23.633 23.6367 23.6098 23.6367 23.586C23.6367 23.5622 23.6294 23.539 23.6157 23.5195C23.6021 23.5 23.5828 23.4851 23.5604 23.477L22.4314 23.07C21.8124 22.8467 21.2503 22.4897 20.785 22.0244C20.3197 21.5591 19.9627 20.997 19.7394 20.378L19.3324 19.249C19.3242 19.2266 19.3094 19.2073 19.2899 19.1937C19.2704 19.18 19.2472 19.1727 19.2234 19.1727C19.1996 19.1727 19.1764 19.18 19.1569 19.1937C19.1374 19.2073 19.1225 19.2266 19.1144 19.249L18.7074 20.378C18.4841 20.997 18.1271 21.5591 17.6618 22.0244C17.1965 22.4897 16.6344 22.8467 16.0154 23.07L14.8864 23.477C14.864 23.4851 14.8447 23.5 14.8311 23.5195C14.8174 23.539 14.8101 23.5622 14.8101 23.586C14.8101 23.6098 14.8174 23.633 14.8311 23.6525C14.8447 23.672 14.864 23.6869 14.8864 23.695L16.0154 24.102C16.6344 24.3253 17.1965 24.6823 17.6618 25.1476C18.1271 25.6129 18.4841 26.175 18.7074 26.794L19.1144 27.923C19.1225 27.9454 19.1374 27.9647 19.1569 27.9783C19.1764 27.992 19.1996 27.9993 19.2234 27.9993C19.2472 27.9993 19.2704 27.992 19.2899 27.9783C19.3094 27.9647 19.3242 27.9454 19.3324 27.923ZM19.3324 8.75L19.7394 7.621C19.9627 7.00203 20.3197 6.43989 20.785 5.9746C21.2503 5.50931 21.8124 5.1523 22.4314 4.929L23.5604 4.522C23.5828 4.51385 23.6021 4.49903 23.6157 4.47953C23.6294 4.46003 23.6367 4.4368 23.6367 4.413C23.6367 4.38919 23.6294 4.36597 23.6157 4.34647C23.6021 4.32697 23.5828 4.31214 23.5604 4.304L22.4314 3.897C21.8124 3.67369 21.2503 3.31669 20.785 2.85139C20.3197 2.3861 19.9627 1.82397 19.7394 1.205L19.3324 0.0759964C19.3242 0.0536308 19.3094 0.0343094 19.2899 0.0206566C19.2704 0.00700569 19.2472 -0.00031662 19.2234 -0.00031662C19.1996 -0.00031662 19.1764 0.00700569 19.1569 0.0206566C19.1374 0.0343094 19.1225 0.0536308 19.1144 0.0759964L18.7074 1.205C18.4841 1.82397 18.1271 2.3861 17.6618 2.85139C17.1965 3.31669 16.6344 3.67369 16.0154 3.897L14.8864 4.304C14.864 4.31214 14.8447 4.32697 14.8311 4.34647C14.8174 4.36597 14.8101 4.38919 14.8101 4.413C14.8101 4.4368 14.8174 4.46003 14.8311 4.47953C14.8447 4.49903 14.864 4.51385 14.8864 4.522L16.0154 4.929C16.6344 5.1523 17.1965 5.50931 17.6618 5.9746C18.1271 6.43989 18.4841 7.00203 18.7074 7.621L19.1144 8.75C19.1514 8.852 19.2964 8.852 19.3324 8.75Z" fill="#87AB21"/>
</svg>
