<svg width="28" height="32" viewBox="0 0 28 32" fill="none" xmlns="http://www.w3.org/2000/svg">
<path d="M24.6 7.3867L19.96 2.73336C19.095 1.86433 18.0663 1.17533 16.9335 0.706179C15.8007 0.237026 14.5861 -0.00298092 13.36 2.79437e-05H7.33329C3.65329 2.79437e-05 0.666626 2.9867 0.666626 6.6667V25.3334C0.666626 29.0134 3.65329 32 7.33329 32H9.99996C10.7333 32 11.3333 31.4 11.3333 30.6667C11.3333 29.9334 10.7333 29.3334 9.99996 29.3334H7.33329C5.13329 29.3334 3.33329 27.5334 3.33329 25.3334V6.6667C3.33329 4.4667 5.13329 2.66669 7.33329 2.66669H13.3466C13.56 2.66669 13.7866 2.66669 14 2.69336V9.33336C14 11.5334 15.8 13.3334 18 13.3334H24.64C24.6666 13.5467 24.6666 13.76 24.6666 13.9867V25.3334C24.6666 26.76 23.8933 28.08 22.6666 28.8C22.0266 29.1734 21.8133 29.9867 22.1866 30.6267C22.5466 31.2667 23.36 31.48 24.0133 31.12C26.0666 29.9334 27.3466 27.72 27.3466 25.3467V13.9867C27.3466 11.4934 26.3733 9.1467 24.6133 7.3867H24.6ZM18 10.6667C17.2666 10.6667 16.6666 10.0667 16.6666 9.33336V3.5467C17.1733 3.84003 17.64 4.20003 18.0666 4.6267L22.7066 9.28003C23.1333 9.7067 23.4933 10.1734 23.7866 10.68H18V10.6667ZM16.6666 16C13.72 16 11.3333 18.3867 11.3333 21.3334C11.3343 22.2686 11.5811 23.1872 12.0492 23.9969C12.5172 24.8067 13.19 25.4791 14 25.9467V31.0267C14 31.88 15.04 32.3067 15.64 31.7067L16.6666 30.68L17.6933 31.7067C18.2933 32.3067 19.3333 31.88 19.3333 31.0267V25.9467C20.92 25.0267 22 23.2934 22 21.3334C22 18.3867 19.6133 16 16.6666 16ZM16.6666 24C15.2 24 14 22.8 14 21.3334C14 19.8667 15.2 18.6667 16.6666 18.6667C18.1333 18.6667 19.3333 19.8667 19.3333 21.3334C19.3333 22.8 18.1333 24 16.6666 24Z" fill="white"/>
</svg>
