<svg width="33" height="32" viewBox="0 0 33 32" fill="none" xmlns="http://www.w3.org/2000/svg">
<g clip-path="url(#clip0_183_2367)">
<path d="M23 13.3333C21.1826 13.3354 19.4053 13.8675 17.8858 14.8646C16.3663 15.8616 15.1707 17.2803 14.4454 18.9467C14.2232 18.7711 13.9498 18.6728 13.6667 18.6667C13.3131 18.6667 12.9739 18.8071 12.7239 19.0572C12.4739 19.3072 12.3334 19.6464 12.3334 20V22.6667C12.3334 23.0203 12.4739 23.3594 12.7239 23.6095C12.9739 23.8595 13.3131 24 13.6667 24C13.7027 24 13.7347 23.9827 13.7707 23.9787C14.412 28.504 18.3014 32 23 32C28.1467 32 32.3334 27.812 32.3334 22.6667C32.3334 17.5213 28.1467 13.3333 23 13.3333ZM23 29.3333C19.324 29.3333 16.3334 26.3427 16.3334 22.6667C16.3334 18.9907 19.324 16 23 16C26.676 16 29.6667 18.9907 29.6667 22.6667C29.6667 26.3427 26.676 29.3333 23 29.3333ZM27.2947 21.0507C27.416 21.177 27.5112 21.326 27.5748 21.4891C27.6385 21.6522 27.6695 21.8263 27.6659 22.0013C27.6623 22.1764 27.6242 22.3491 27.5539 22.5094C27.4836 22.6698 27.3824 22.8148 27.256 22.936L24.3067 25.768C23.704 26.3627 22.904 26.6627 22.1027 26.6627C21.3014 26.6627 20.4974 26.3627 19.884 25.764L18.3747 24.2867C18.1219 24.0393 17.9776 23.7016 17.9738 23.3479C17.9699 22.9943 18.1067 22.6535 18.354 22.4007C18.6014 22.1478 18.9391 22.0036 19.2928 21.9997C19.6465 21.9959 19.9872 22.1326 20.24 22.38L21.7494 23.8573C21.8425 23.9481 21.9674 23.9988 22.0974 23.9988C22.2274 23.9988 22.3523 23.9481 22.4454 23.8573L25.4094 21.012C25.5357 20.8907 25.6847 20.7955 25.8478 20.7319C26.0109 20.6682 26.185 20.6372 26.3601 20.6408C26.5351 20.6444 26.7078 20.6825 26.8681 20.7528C27.0285 20.8231 27.1735 20.9243 27.2947 21.0507ZM13.6667 30.6667C13.6667 31.0203 13.5262 31.3594 13.2762 31.6095C13.0261 31.8595 12.687 32 12.3334 32H7.00004C3.32404 32 0.333374 29.0093 0.333374 25.3333V17.3333C0.335586 16.0378 0.715027 14.7709 1.42536 13.6874C2.13569 12.6039 3.14616 11.7507 4.33337 11.232V9.33333C4.33337 4.18667 8.52004 0 13.6667 0C18.8134 0 23 4.18667 23 9.33333C23 9.68696 22.8596 10.0261 22.6095 10.2761C22.3595 10.5262 22.0203 10.6667 21.6667 10.6667C21.3131 10.6667 20.9739 10.5262 20.7239 10.2761C20.4739 10.0261 20.3334 9.68696 20.3334 9.33333C20.3334 5.65733 17.3427 2.66667 13.6667 2.66667C9.99071 2.66667 7.00004 5.65733 7.00004 9.33333V10.6667H17.6667C18.0203 10.6667 18.3595 10.8071 18.6095 11.0572C18.8596 11.3072 19 11.6464 19 12C19 12.3536 18.8596 12.6928 18.6095 12.9428C18.3595 13.1929 18.0203 13.3333 17.6667 13.3333H7.00004C4.79471 13.3333 3.00004 15.128 3.00004 17.3333V25.3333C3.00004 27.5387 4.79471 29.3333 7.00004 29.3333H12.3334C12.687 29.3333 13.0261 29.4738 13.2762 29.7239C13.5262 29.9739 13.6667 30.313 13.6667 30.6667Z" fill="white"/>
</g>
<defs>
<clipPath id="clip0_183_2367">
<rect width="32" height="32" fill="white" transform="translate(0.333374)"/>
</clipPath>
</defs>
</svg>
