<svg width="27" height="32" viewBox="0 0 27 32" fill="none" xmlns="http://www.w3.org/2000/svg">
<path d="M22.4413 2.85329L14.0879 0.0679549C13.8144 -0.0231399 13.5188 -0.0231399 13.2453 0.0679549L4.89192 2.85329C3.56379 3.29446 2.40847 4.14296 1.59011 5.27824C0.771751 6.41351 0.33197 7.7778 0.333255 9.17729V16C0.333255 26.084 12.5999 31.6533 13.1253 31.8853C13.2957 31.961 13.4801 32.0001 13.6666 32.0001C13.8531 32.0001 14.0375 31.961 14.2079 31.8853C14.7333 31.6533 26.9999 26.084 26.9999 16V9.17729C27.0012 7.7778 26.5614 6.41351 25.7431 5.27824C24.9247 4.14296 23.7694 3.29446 22.4413 2.85329ZM24.3333 16C24.3333 23.2733 15.9079 28.044 13.6666 29.1853C11.4226 28.048 2.99992 23.292 2.99992 16V9.17729C3 8.33766 3.26429 7.51934 3.75534 6.83828C4.2464 6.15722 4.93931 5.64795 5.73592 5.38262L13.6666 2.73862L21.5973 5.38262C22.3939 5.64795 23.0868 6.15722 23.5778 6.83828C24.0689 7.51934 24.3332 8.33766 24.3333 9.17729V16Z" fill="white"/>
<path d="M18.0666 11.0666L12.4826 16.6666L9.49055 13.5466C9.37048 13.4154 9.22534 13.3094 9.0637 13.2351C8.90206 13.1608 8.72717 13.1196 8.54935 13.1139C8.37153 13.1082 8.19436 13.1381 8.02829 13.202C7.86222 13.2658 7.71061 13.3622 7.58238 13.4855C7.45415 13.6089 7.35191 13.7566 7.28166 13.9201C7.21142 14.0835 7.1746 14.2594 7.17337 14.4373C7.17214 14.6152 7.20654 14.7916 7.27452 14.956C7.3425 15.1204 7.44271 15.2696 7.56922 15.3946L10.6439 18.5946C10.8732 18.8423 11.1503 19.0409 11.4586 19.1784C11.7668 19.3159 12.0997 19.3895 12.4372 19.3946H12.4812C12.812 19.3957 13.1396 19.3311 13.4452 19.2045C13.7508 19.078 14.0281 18.892 14.2612 18.6573L19.9572 12.9613C20.0816 12.8372 20.1804 12.6897 20.2478 12.5274C20.3152 12.3651 20.35 12.1911 20.3502 12.0154C20.3504 11.8396 20.316 11.6656 20.2489 11.5031C20.1818 11.3407 20.0834 11.1931 19.9592 11.0686C19.8351 10.9442 19.6876 10.8455 19.5253 10.7781C19.363 10.7106 19.1891 10.6758 19.0133 10.6757C18.8376 10.6755 18.6635 10.7099 18.501 10.777C18.3386 10.8441 18.191 10.9425 18.0666 11.0666Z" fill="white"/>
</svg>
