<svg width="33" height="27" viewBox="0 0 33 27" fill="none" xmlns="http://www.w3.org/2000/svg">
<g clip-path="url(#clip0_226_1244)">
<path d="M15.7187 0.15918V5.7871C15.5621 5.89088 15.42 6.03051 15.3099 6.20662L9.13682 17.2757C8.72808 17.5361 8.33193 17.8159 7.95526 18.1166C7.83642 18.2078 7.7226 18.3028 7.60816 18.4028C5.33623 20.3368 3.7013 23.0011 3.06997 26.032C0.723839 24.5684 -0.316228 21.3847 1.23633 18.699L9.68766 4.05432C11.0535 1.69069 13.3386 0.391894 15.7187 0.15918Z" fill="white"/>
<path d="M26.601 19.5651C26.2219 19.1544 25.8175 18.7644 25.3918 18.4021C25.2774 18.3028 25.1629 18.2072 25.0447 18.116C24.6655 17.8153 24.2719 17.5354 23.8632 17.2751L23.8399 17.2329C24.8862 17.8895 25.7987 18.6751 26.601 19.5651Z" fill="#060606"/>
<path d="M31.4335 24.6339C30.9632 22.791 30.0696 21.0777 28.9157 19.5311C27.3003 17.3643 25.2038 15.6504 22.4081 14.6001L22.393 14.6403L17.6894 6.20599C17.6196 6.09592 17.5391 6.00032 17.4498 5.91981C17.4052 5.87767 17.3612 5.84119 17.3121 5.80786C17.3014 5.80157 17.2907 5.79276 17.28 5.78647V0.15918C19.6582 0.391894 21.9453 1.69069 23.3111 4.05432L31.7624 18.699C32.9226 20.7091 32.6346 22.9967 31.4323 24.6339H31.4335Z" fill="#87A922"/>
<path d="M29.93 26.032C29.1144 26.5402 28.1429 26.8408 27.0651 26.8408H27.0374C25.7628 26.7987 24.5618 26.237 23.6934 25.3049C21.8975 23.3816 19.3413 22.1784 16.5016 22.1784H16.4972C13.6574 22.1784 11.1013 23.3816 9.30536 25.3049C8.43696 26.237 7.23654 26.7981 5.9613 26.8408H5.93363C4.85583 26.8408 3.88368 26.5402 3.06873 26.032C3.70006 23.001 5.33436 20.3361 7.60692 18.4027C7.72136 18.3033 7.83581 18.2077 7.95402 18.1165C8.33069 17.8159 8.72684 17.536 9.13558 17.2756C10.1077 16.653 11.1641 16.1485 12.2847 15.7888C13.6128 15.3611 15.027 15.1302 16.4965 15.1302H16.5009C17.9705 15.1302 19.3853 15.3611 20.7128 15.7888C21.8327 16.1492 22.8879 16.653 23.8619 17.2756C24.2706 17.536 24.6643 17.8159 25.0435 18.1165C25.1623 18.2077 25.2761 18.3027 25.3906 18.4027C25.8163 18.765 26.2206 19.155 26.5998 19.5657C26.6017 19.5701 26.6042 19.572 26.608 19.5738C28.1731 21.2789 29.3144 23.3841 29.8583 25.7163C29.8627 25.7269 29.8646 25.7376 29.8665 25.7483C29.8879 25.8439 29.9086 25.937 29.9281 26.032H29.93Z" fill="white"/>
</g>
<defs>
<clipPath id="clip0_226_1244">
<rect width="32" height="26.6817" fill="white" transform="translate(0.5 0.15918)"/>
</clipPath>
</defs>
</svg>
