<svg width="32" height="33" viewBox="0 0 32 33" fill="none" xmlns="http://www.w3.org/2000/svg">
<g clip-path="url(#clip0_226_1130)">
<path fill-rule="evenodd" clip-rule="evenodd" d="M16 0.5C7.164 0.5 0 7.664 0 16.5C0 25.336 7.164 32.5 16 32.5C24.836 32.5 32 25.336 32 16.5C32 7.664 24.836 0.5 16 0.5ZM23.416 11.3813C23.176 13.9107 22.1333 20.0507 21.604 22.884C21.38 24.084 20.9373 24.4853 20.5107 24.524C19.5813 24.6093 18.876 23.9093 17.976 23.32C16.568 22.3973 15.772 21.8227 14.4053 20.9213C12.8253 19.88 13.8493 19.308 14.7493 18.3733C14.9853 18.128 19.0787 14.404 19.1587 14.0667C19.168 14.024 19.1787 13.8667 19.084 13.784C18.9893 13.7013 18.852 13.7293 18.7533 13.752C18.612 13.784 16.3627 15.2707 12.004 18.212C11.3653 18.6507 10.7867 18.864 10.268 18.8533C9.69733 18.8413 8.59867 18.5307 7.78133 18.264C6.78 17.9387 5.98267 17.7653 6.052 17.2133C6.088 16.9253 6.484 16.6307 7.24133 16.3293C11.9053 14.2973 15.016 12.9573 16.572 12.3093C21.016 10.4613 21.9387 10.14 22.5413 10.1293C23.296 10.1187 23.4773 10.7413 23.416 11.3813Z" fill="#33ABDF"/>
</g>
<defs>
<clipPath id="clip0_226_1130">
<rect width="32" height="32" fill="white" transform="translate(0 0.5)"/>
</clipPath>
</defs>
</svg>
