<svg width="32" height="32" viewBox="0 0 32 32" fill="none" xmlns="http://www.w3.org/2000/svg">
<rect width="32" height="32" rx="16" fill="#6A9C89"/>
<g clip-path="url(#clip0_843_137)">
<path d="M19.375 7C16.2205 7 13.75 8.48275 13.75 10.375V12.3152C13.3766 12.2715 13.001 12.2497 12.625 12.25C9.4705 12.25 7 13.7327 7 15.625V21.625C7 23.5173 9.4705 25 12.625 25C15.1803 25 17.287 24.0273 17.995 22.6517C18.4435 22.717 18.9055 22.75 19.375 22.75C22.5295 22.75 25 21.2673 25 19.375V10.375C25 8.48275 22.5295 7 19.375 7ZM23.5 16.375C23.5 17.26 21.736 18.25 19.375 18.25C18.991 18.25 18.6145 18.2238 18.25 18.1728V16.6847C18.6175 16.7275 18.994 16.75 19.375 16.75C21.0205 16.75 22.48 16.3465 23.5 15.6917V16.375ZM8.5 17.9417C9.52 18.5965 10.9795 19 12.625 19C14.2705 19 15.73 18.5965 16.75 17.9417V18.625C16.75 19.51 14.986 20.5 12.625 20.5C10.264 20.5 8.5 19.51 8.5 18.625V17.9417ZM23.5 13.375C23.5 14.26 21.736 15.25 19.375 15.25C18.9738 15.25 18.58 15.2215 18.2005 15.166C18.0557 14.5007 17.6005 13.903 16.921 13.4237C17.659 13.6337 18.49 13.75 19.375 13.75C21.0205 13.75 22.48 13.3465 23.5 12.6918V13.375ZM19.375 8.5C21.736 8.5 23.5 9.49 23.5 10.375C23.5 11.26 21.736 12.25 19.375 12.25C17.014 12.25 15.25 11.26 15.25 10.375C15.25 9.49 17.014 8.5 19.375 8.5ZM12.625 13.75C14.986 13.75 16.75 14.74 16.75 15.625C16.75 16.51 14.986 17.5 12.625 17.5C10.264 17.5 8.5 16.51 8.5 15.625C8.5 14.74 10.264 13.75 12.625 13.75ZM12.625 23.5C10.264 23.5 8.5 22.51 8.5 21.625V20.9418C9.52 21.5965 10.9795 22 12.625 22C14.2705 22 15.73 21.5965 16.75 20.9418V21.625C16.75 22.51 14.986 23.5 12.625 23.5ZM19.375 21.25C18.991 21.25 18.6145 21.2237 18.25 21.1727V19.6847C18.6175 19.7275 18.994 19.75 19.375 19.75C21.0205 19.75 22.48 19.3465 23.5 18.6917V19.375C23.5 20.26 21.736 21.25 19.375 21.25Z" fill="#16423C"/>
</g>
<defs>
<clipPath id="clip0_843_137">
<rect width="18" height="18" fill="white" transform="translate(7 7)"/>
</clipPath>
</defs>
</svg>
