<svg width="32" height="32" viewBox="0 0 32 32" fill="none" xmlns="http://www.w3.org/2000/svg">
<rect width="32" height="32" rx="16" fill="#6A9C89"/>
<g clip-path="url(#clip0_843_205)">
<path d="M16 6C14.0222 6 12.0888 6.58649 10.4443 7.6853C8.79981 8.78412 7.51809 10.3459 6.76121 12.1732C6.00433 14.0004 5.8063 16.0111 6.19215 17.9509C6.578 19.8907 7.53041 21.6725 8.92894 23.0711C10.3275 24.4696 12.1093 25.422 14.0491 25.8079C15.9889 26.1937 17.9996 25.9957 19.8268 25.2388C21.6541 24.4819 23.2159 23.2002 24.3147 21.5557C25.4135 19.9112 26 17.9778 26 16C25.9971 13.3487 24.9426 10.8068 23.0679 8.9321C21.1932 7.05736 18.6513 6.00287 16 6ZM23.2058 11.8333H20.5217C19.9208 10.4408 19.1297 9.1384 18.1708 7.96333C20.2929 8.54077 22.1019 9.93122 23.2058 11.8333ZM19.75 16C19.7432 16.8484 19.6095 17.6911 19.3533 18.5H12.6467C12.3905 17.6911 12.2568 16.8484 12.25 16C12.2568 15.1516 12.3905 14.3089 12.6467 13.5H19.3533C19.6095 14.3089 19.7432 15.1516 19.75 16ZM13.315 20.1667H18.685C17.9777 21.5631 17.0735 22.8507 16 23.99C14.9261 22.851 14.0219 21.5634 13.315 20.1667ZM13.315 11.8333C14.0223 10.4369 14.9265 9.1493 16 8.01C17.0739 9.14898 17.9781 10.4366 18.685 11.8333H13.315ZM13.8333 7.96333C12.8731 9.13815 12.0805 10.4406 11.4783 11.8333H8.79417C9.89905 9.93036 11.7097 8.5398 13.8333 7.96333ZM8.05084 13.5H10.9167C10.7006 14.316 10.5886 15.1559 10.5833 16C10.5886 16.8441 10.7006 17.684 10.9167 18.5H8.05084C7.53862 16.8727 7.53862 15.1273 8.05084 13.5ZM8.79417 20.1667H11.4783C12.0805 21.5594 12.8731 22.8618 13.8333 24.0367C11.7097 23.4602 9.89905 22.0696 8.79417 20.1667ZM18.1708 24.0367C19.1297 22.8616 19.9208 21.5592 20.5217 20.1667H23.2058C22.1019 22.0688 20.2929 23.4592 18.1708 24.0367ZM23.9492 18.5H21.0833C21.2994 17.684 21.4114 16.8441 21.4167 16C21.4114 15.1559 21.2994 14.316 21.0833 13.5H23.9475C24.4597 15.1273 24.4597 16.8727 23.9475 18.5H23.9492Z" fill="#16423C"/>
</g>
<defs>
<clipPath id="clip0_843_205">
<rect width="20" height="20" fill="white" transform="translate(6 6)"/>
</clipPath>
</defs>
</svg>
