<svg width="27" height="33" viewBox="0 0 27 33" fill="none" xmlns="http://www.w3.org/2000/svg">
<path d="M19.6582 0.5H19.8859C20.0685 2.75671 19.2072 4.44291 18.1603 5.66401C17.1331 6.87667 15.7266 8.0528 13.4516 7.87435C13.2998 5.64996 14.1626 4.08881 15.208 2.87053C16.1776 1.73515 17.9552 0.724828 19.6582 0.5ZM26.545 23.9889V24.0521C25.9056 25.9884 24.9937 27.6479 23.8808 29.188C22.8648 30.5862 21.6199 32.4677 19.3969 32.4677C17.476 32.4677 16.2001 31.2325 14.2315 31.1988C12.149 31.1651 11.0038 32.2316 9.09976 32.5H8.45057C7.05242 32.2977 5.92407 31.1904 5.10204 30.1927C2.67812 27.2447 0.805026 23.4366 0.456543 18.5635V17.1316C0.604086 13.644 2.29872 10.8083 4.55122 9.43409C5.73999 8.7034 7.37421 8.08091 9.19391 8.35913C9.97378 8.47998 10.7705 8.74696 11.4689 9.01113C12.1307 9.26547 12.9584 9.71653 13.7425 9.69264C14.2736 9.67718 14.802 9.40036 15.3373 9.20504C16.9055 8.63876 18.4428 7.98957 20.469 8.29449C22.9042 8.66265 24.6325 9.74463 25.7005 11.414C23.6405 12.725 22.0119 14.7007 22.2901 18.0745C22.5374 21.1392 24.3192 22.9322 26.545 23.9889Z" fill="#060606"/>
</svg>
