<svg width="24" height="25" viewBox="0 0 24 25" fill="none" xmlns="http://www.w3.org/2000/svg">
<path d="M8.31684 1.15812C5.39371 2.15937 2.90043 4.34984 1.51621 7.11171C1.03246 8.06609 0.682776 9.08046 0.474651 10.1291C-0.0559743 12.7362 0.313401 15.5117 1.51621 17.8901C2.29574 19.4422 3.41793 20.8198 4.77543 21.8951C6.05887 22.9166 7.55043 23.6694 9.13668 24.0926C11.1326 24.6303 13.2626 24.6167 15.2782 24.1597C17.0993 23.743 18.8197 22.8697 20.1903 21.6064C21.6415 20.2691 22.6765 18.5155 23.2278 16.6273C23.8259 14.5644 23.9065 12.3669 23.5301 10.257C19.767 10.257 16.0039 10.257 12.2342 10.257C12.2342 11.8161 12.2342 13.3817 12.2342 14.9408C14.4115 14.9408 16.5954 14.9408 18.7723 14.9408C18.5168 16.4394 17.63 17.8034 16.3667 18.65C15.5736 19.1806 14.6665 19.5303 13.7257 19.6916C12.7784 19.8528 11.8039 19.873 10.8631 19.685C9.90215 19.497 8.98809 19.0934 8.18887 18.5291C6.91199 17.6351 5.93793 16.3184 5.44059 14.8466C4.93012 13.348 4.92309 11.675 5.44059 10.1764C5.79684 9.12124 6.39496 8.14015 7.18106 7.34749C8.14856 6.35281 9.40528 5.64734 10.7628 5.35859C11.9253 5.11015 13.1482 5.15702 14.284 5.49968C15.2515 5.79546 16.1389 6.31952 16.8711 7.01843C17.6103 6.28577 18.3425 5.54702 19.0817 4.81437C19.4646 4.41781 19.8748 4.0414 20.2507 3.63171C19.1351 2.59671 17.8184 1.76374 16.3868 1.23968C13.82 0.277806 10.9104 0.25765 8.31684 1.15812Z" fill="white"/>
<path d="M8.31703 1.15801C10.9106 0.257539 13.8206 0.277695 16.4006 1.23207C17.8317 1.75613 19.1423 2.58957 20.2645 3.6241C19.8881 4.02723 19.485 4.41019 19.0955 4.80676C18.3562 5.53941 17.6241 6.27816 16.8848 7.01082C16.1522 6.31191 15.2653 5.78129 14.2978 5.49207C13.162 5.14941 11.9391 5.10254 10.7766 5.35098C9.41906 5.63973 8.16281 6.35223 7.19484 7.33988C6.40875 8.13301 5.81062 9.1141 5.45437 10.1688C4.14422 9.15394 2.83359 8.13254 1.52344 7.11816C2.90062 4.34973 5.39391 2.15926 8.31703 1.15801Z" fill="#E94435"/>
<path d="M0.474651 10.1287C0.682776 9.08055 1.03903 8.0657 1.51621 7.11133C2.82637 8.12617 4.13699 9.14758 5.44715 10.162C4.92965 11.6605 4.93668 13.3335 5.44715 14.8321C4.13699 15.847 2.82637 16.8684 1.51621 17.8827C0.313401 15.5179 -0.0559742 12.7359 0.474651 10.1287Z" fill="#F8BB15"/>
<path d="M12.2393 10.2498C16.0024 10.2498 19.7656 10.2498 23.5352 10.2498C23.9116 12.3596 23.831 14.5571 23.2329 16.6201C22.6821 18.5082 21.6471 20.2689 20.1954 21.5992C18.9256 20.6115 17.6487 19.6234 16.3854 18.6357C17.6487 17.7957 18.5356 16.4251 18.791 14.9265C16.6137 14.9265 14.4298 14.9265 12.2529 14.9265C12.2327 13.3745 12.2393 11.8154 12.2393 10.2498Z" fill="#547DBE"/>
<path d="M1.51562 17.8895C2.82578 16.8746 4.13641 15.8532 5.44656 14.8389C5.94391 16.3173 6.91797 17.6275 8.19484 18.5214C8.99453 19.0857 9.90812 19.4823 10.8691 19.6773C11.8098 19.8653 12.7909 19.8451 13.7317 19.6839C14.6725 19.5226 15.5795 19.1734 16.3727 18.6423C17.6425 19.63 18.9194 20.6181 20.1827 21.6057C18.812 22.8756 17.0917 23.7428 15.2706 24.159C13.2616 24.6161 11.1311 24.6292 9.12906 24.092C7.54328 23.6687 6.05125 22.9159 4.76781 21.8945C3.41734 20.8126 2.29516 19.435 1.51562 17.8895Z" fill="#34A751"/>
</svg>
