<svg width="23" height="24" viewBox="0 0 23 24" fill="none" xmlns="http://www.w3.org/2000/svg">
<path d="M22.5577 13.6624L20.6573 6.82505C20.1003 4.822 18.8897 3.06261 17.218 1.82656C15.5463 0.590504 13.5093 -0.0512861 11.431 0.00320445C9.35265 0.057695 7.35215 0.805339 5.7475 2.12729C4.14284 3.44925 3.02611 5.26965 2.57482 7.29914L1.10354 13.9154C0.941024 14.6465 0.944781 15.4047 1.11453 16.1342C1.28429 16.8636 1.6157 17.5456 2.08431 18.1298C2.55292 18.714 3.14675 19.1855 3.82197 19.5094C4.4972 19.8334 5.23656 20.0016 5.98548 20.0016H7.09969C7.32925 21.1321 7.94259 22.1485 8.83577 22.8785C9.72895 23.6086 10.8471 24.0074 12.0006 24.0074C13.1542 24.0074 14.2723 23.6086 15.1655 22.8785C16.0587 22.1485 16.672 21.1321 16.9016 20.0016H17.7397C18.5107 20.0016 19.2712 19.8234 19.9619 19.4809C20.6526 19.1384 21.2548 18.6408 21.7213 18.0271C22.1879 17.4133 22.5062 16.7 22.6515 15.9428C22.7967 15.1857 22.764 14.4052 22.5577 13.6624ZM12.0006 22.002C11.3823 21.9994 10.7798 21.8058 10.2756 21.4478C9.77144 21.0897 9.39022 20.5846 9.1841 20.0016H14.8172C14.6111 20.5846 14.2298 21.0897 13.7257 21.4478C13.2215 21.8058 12.619 21.9994 12.0006 22.002ZM20.1282 16.816C19.8495 17.1857 19.4884 17.4854 19.0736 17.6911C18.6588 17.8969 18.2018 18.003 17.7387 18.0012H5.98548C5.53618 18.0011 5.09263 17.9001 4.68757 17.7057C4.28251 17.5113 3.92629 17.2284 3.64519 16.8779C3.36409 16.5274 3.1653 16.1182 3.06348 15.6806C2.96166 15.243 2.95942 14.7881 3.05692 14.3495L4.5272 7.73222C4.88162 6.13813 5.75874 4.70825 7.01913 3.66989C8.27953 2.63154 9.85085 2.0443 11.4833 2.00154C13.1158 1.95877 14.7157 2.46293 16.0287 3.43387C17.3417 4.40481 18.2925 5.7868 18.7299 7.36015L20.6303 14.1975C20.7559 14.6429 20.7759 15.1115 20.6887 15.5661C20.6016 16.0206 20.4096 16.4486 20.1282 16.816Z" fill="#16423C"/>
</svg>
